<?xml version="1.0" encoding="UTF-8" standalone="no"?>
<!DOCTYPE svg PUBLIC "-//W3C//DTD SVG 1.1//EN"
 "http://www.w3.org/Graphics/SVG/1.1/DTD/svg11.dtd">
<!-- Generated by graphviz version 2.36.0 (20140111.2315)
 -->
<!-- Title: %3 Pages: 1 -->
<svg width="7148pt" height="1154pt"
 viewBox="0.00 0.00 7148.00 1154.00" xmlns="http://www.w3.org/2000/svg" xmlns:xlink="http://www.w3.org/1999/xlink">
<g id="graph0" class="graph" transform="scale(1 1) rotate(0) translate(4 1150)">
<title>%3</title>
<polygon fill="white" stroke="none" points="-4,4 -4,-1150 7144,-1150 7144,4 -4,4"/>
<!-- 2 -->
<g id="node1" class="node"><title>2</title>
<polygon fill="#fc1100" stroke="#fc1100" points="5865.25,-880 5112.75,-880 5112.75,-828 5865.25,-828 5865.25,-880"/>
<text text-anchor="middle" x="5489" y="-868" font-family="Arial" font-size="10.00" fill="#ffffff">message_filters::Signal1&lt;sensor_msgs::LaserScan_&lt;std::allocator&lt;void&gt; &gt; &gt;::call(ros::MessageEvent&lt;sensor_msgs::LaserScan_&lt;std::allocator&lt;void&gt; &gt; const&gt; const&amp;)</text>
<text text-anchor="middle" x="5489" y="-857" font-family="Arial" font-size="10.00" fill="#ffffff">98.36%</text>
<text text-anchor="middle" x="5489" y="-846" font-family="Arial" font-size="10.00" fill="#ffffff">(0.00%)</text>
<text text-anchor="middle" x="5489" y="-835" font-family="Arial" font-size="10.00" fill="#ffffff">8788×</text>
</g>
<!-- 3 -->
<g id="node2" class="node"><title>3</title>
<polygon fill="#fc1200" stroke="#fc1200" points="6055.25,-788 4922.75,-788 4922.75,-736 6055.25,-736 6055.25,-788"/>
<text text-anchor="middle" x="5489" y="-776" font-family="Arial" font-size="10.00" fill="#ffffff">message_filters::CallbackHelper1T&lt;boost::shared_ptr&lt;sensor_msgs::LaserScan_&lt;std::allocator&lt;void&gt; &gt; &gt;, sensor_msgs::LaserScan_&lt;std::allocator&lt;void&gt; &gt; &gt;::call(ros::MessageEvent&lt;sensor_msgs::LaserScan_&lt;std::allocator&lt;void&gt; &gt; const&gt; const&amp;, bool)</text>
<text text-anchor="middle" x="5489" y="-765" font-family="Arial" font-size="10.00" fill="#ffffff">98.26%</text>
<text text-anchor="middle" x="5489" y="-754" font-family="Arial" font-size="10.00" fill="#ffffff">(0.03%)</text>
<text text-anchor="middle" x="5489" y="-743" font-family="Arial" font-size="10.00" fill="#ffffff">4452×</text>
</g>
<!-- 2&#45;&gt;3 -->
<g id="edge1" class="edge"><title>2&#45;&gt;3</title>
<path fill="none" stroke="#fc1200" stroke-width="3.93" d="M5489,-827.93C5489,-818.743 5489,-808.166 5489,-798.253"/>
<polygon fill="#fc1200" stroke="#fc1200" stroke-width="3.93" points="5492.47,-798.148 5489,-788.248 5485.54,-798.148 5492.47,-798.148"/>
<text text-anchor="middle" x="5506" y="-811" font-family="Arial" font-size="10.00" fill="#fc1200">98.26%</text>
<text text-anchor="middle" x="5506" y="-800" font-family="Arial" font-size="10.00" fill="#fc1200">4452×</text>
</g>
<!-- 4 -->
<g id="node3" class="node"><title>4</title>
<polygon fill="#fc1300" stroke="#fc1300" points="6742,-696 4236,-696 4236,-644 6742,-644 6742,-696"/>
<text text-anchor="middle" x="5489" y="-684" font-family="Arial" font-size="10.00" fill="#ffffff">boost::detail::function::void_function_obj_invoker1&lt;boost::_bi::bind_t&lt;void, boost::_mfi::mf1&lt;void, TopicWithTransform&lt;sensor_msgs::LaserScan_&lt;std::allocator&lt;void&gt; &gt; &gt;, boost::shared_ptr&lt;sensor_msgs::LaserScan_&lt;std::allocator&lt;void&gt; &gt; &gt; &gt;, boost::_bi::list2&lt;boost::_bi::value&lt;TopicWithTransform&lt;sensor_msgs::LaserScan_&lt;std::allocator&lt;void&gt; &gt; &gt;*&gt;, boost::arg&lt;1&gt; &gt; &gt;, void, boost::shared_ptr&lt;sensor_msgs::LaserScan_&lt;std::allocator&lt;void&gt; &gt; &gt; &gt;::invoke(boost::detail::function::function_buffer&amp;, boost::shared_ptr&lt;sensor_msgs::LaserScan_&lt;std::allocator&lt;void&gt; &gt; &gt;)</text>
<text text-anchor="middle" x="5489" y="-673" font-family="Arial" font-size="10.00" fill="#ffffff">98.19%</text>
<text text-anchor="middle" x="5489" y="-662" font-family="Arial" font-size="10.00" fill="#ffffff">(0.02%)</text>
<text text-anchor="middle" x="5489" y="-651" font-family="Arial" font-size="10.00" fill="#ffffff">4440×</text>
</g>
<!-- 3&#45;&gt;4 -->
<g id="edge2" class="edge"><title>3&#45;&gt;4</title>
<path fill="none" stroke="#fc1300" stroke-width="3.93" d="M5489,-735.93C5489,-726.743 5489,-716.166 5489,-706.253"/>
<polygon fill="#fc1300" stroke="#fc1300" stroke-width="3.93" points="5492.47,-706.148 5489,-696.248 5485.54,-706.148 5492.47,-706.148"/>
<text text-anchor="middle" x="5506" y="-719" font-family="Arial" font-size="10.00" fill="#fc1300">98.19%</text>
<text text-anchor="middle" x="5506" y="-708" font-family="Arial" font-size="10.00" fill="#fc1300">4440×</text>
</g>
<!-- 5 -->
<g id="node4" class="node"><title>5</title>
<polygon fill="#fc1300" stroke="#fc1300" points="5860.25,-604 5117.75,-604 5117.75,-552 5860.25,-552 5860.25,-604"/>
<text text-anchor="middle" x="5489" y="-592" font-family="Arial" font-size="10.00" fill="#ffffff">TopicWithTransform&lt;sensor_msgs::LaserScan_&lt;std::allocator&lt;void&gt; &gt; &gt;::transformed_msg_cb(boost::shared_ptr&lt;sensor_msgs::LaserScan_&lt;std::allocator&lt;void&gt; &gt; &gt;)</text>
<text text-anchor="middle" x="5489" y="-581" font-family="Arial" font-size="10.00" fill="#ffffff">98.17%</text>
<text text-anchor="middle" x="5489" y="-570" font-family="Arial" font-size="10.00" fill="#ffffff">(0.02%)</text>
<text text-anchor="middle" x="5489" y="-559" font-family="Arial" font-size="10.00" fill="#ffffff">4444×</text>
</g>
<!-- 4&#45;&gt;5 -->
<g id="edge3" class="edge"><title>4&#45;&gt;5</title>
<path fill="none" stroke="#fc1300" stroke-width="3.93" d="M5489,-643.93C5489,-634.743 5489,-624.166 5489,-614.253"/>
<polygon fill="#fc1300" stroke="#fc1300" stroke-width="3.93" points="5492.47,-614.148 5489,-604.248 5485.54,-614.148 5492.47,-614.148"/>
<text text-anchor="middle" x="5506" y="-627" font-family="Arial" font-size="10.00" fill="#fc1300">98.17%</text>
<text text-anchor="middle" x="5506" y="-616" font-family="Arial" font-size="10.00" fill="#fc1300">4444×</text>
</g>
<!-- 6 -->
<g id="node5" class="node"><title>6</title>
<polygon fill="#fc1300" stroke="#fc1300" points="5820,-512 5158,-512 5158,-460 5820,-460 5820,-512"/>
<text text-anchor="middle" x="5489" y="-500" font-family="Arial" font-size="10.00" fill="#ffffff">LaserScanObserver::handle_transformed_msg(boost::shared_ptr&lt;sensor_msgs::LaserScan_&lt;std::allocator&lt;void&gt; &gt; &gt;, tf::StampedTransform const&amp;)</text>
<text text-anchor="middle" x="5489" y="-489" font-family="Arial" font-size="10.00" fill="#ffffff">98.15%</text>
<text text-anchor="middle" x="5489" y="-478" font-family="Arial" font-size="10.00" fill="#ffffff">(0.11%)</text>
<text text-anchor="middle" x="5489" y="-467" font-family="Arial" font-size="10.00" fill="#ffffff">4454×</text>
</g>
<!-- 5&#45;&gt;6 -->
<g id="edge4" class="edge"><title>5&#45;&gt;6</title>
<path fill="none" stroke="#fc1300" stroke-width="3.93" d="M5489,-551.93C5489,-542.743 5489,-532.166 5489,-522.253"/>
<polygon fill="#fc1300" stroke="#fc1300" stroke-width="3.93" points="5492.47,-522.148 5489,-512.248 5485.54,-522.148 5492.47,-522.148"/>
<text text-anchor="middle" x="5506" y="-535" font-family="Arial" font-size="10.00" fill="#fc1300">98.15%</text>
<text text-anchor="middle" x="5506" y="-524" font-family="Arial" font-size="10.00" fill="#fc1300">4454×</text>
</g>
<!-- 7 -->
<g id="node6" class="node"><title>7</title>
<polygon fill="#fb1a01" stroke="#fb1a01" points="5636,-420 5342,-420 5342,-368 5636,-368 5636,-420"/>
<text text-anchor="middle" x="5489" y="-408" font-family="Arial" font-size="10.00" fill="#ffffff">TinySlamFascade::handle_laser_scan(TransformedLaserScan&amp;)</text>
<text text-anchor="middle" x="5489" y="-397" font-family="Arial" font-size="10.00" fill="#ffffff">97.48%</text>
<text text-anchor="middle" x="5489" y="-386" font-family="Arial" font-size="10.00" fill="#ffffff">(0.00%)</text>
<text text-anchor="middle" x="5489" y="-375" font-family="Arial" font-size="10.00" fill="#ffffff">4462×</text>
</g>
<!-- 6&#45;&gt;7 -->
<g id="edge5" class="edge"><title>6&#45;&gt;7</title>
<path fill="none" stroke="#fb1a01" stroke-width="3.9" d="M5489,-459.93C5489,-450.743 5489,-440.166 5489,-430.253"/>
<polygon fill="#fb1a01" stroke="#fb1a01" stroke-width="3.9" points="5492.47,-430.148 5489,-420.248 5485.54,-430.148 5492.47,-430.148"/>
<text text-anchor="middle" x="5506" y="-443" font-family="Arial" font-size="10.00" fill="#fb1a01">97.48%</text>
<text text-anchor="middle" x="5506" y="-432" font-family="Arial" font-size="10.00" fill="#fb1a01">4462×</text>
</g>
<!-- 8 -->
<g id="node7" class="node"><title>8</title>
<polygon fill="#fb1a01" stroke="#fb1a01" points="5619.25,-328 5358.75,-328 5358.75,-276 5619.25,-276 5619.25,-328"/>
<text text-anchor="middle" x="5489" y="-316" font-family="Arial" font-size="10.00" fill="#ffffff">TinyWorld::handle_observation(TransformedLaserScan&amp;)</text>
<text text-anchor="middle" x="5489" y="-305" font-family="Arial" font-size="10.00" fill="#ffffff">97.48%</text>
<text text-anchor="middle" x="5489" y="-294" font-family="Arial" font-size="10.00" fill="#ffffff">(0.02%)</text>
<text text-anchor="middle" x="5489" y="-283" font-family="Arial" font-size="10.00" fill="#ffffff">4442×</text>
</g>
<!-- 7&#45;&gt;8 -->
<g id="edge6" class="edge"><title>7&#45;&gt;8</title>
<path fill="none" stroke="#fb1a01" stroke-width="3.9" d="M5489,-367.93C5489,-358.743 5489,-348.166 5489,-338.253"/>
<polygon fill="#fb1a01" stroke="#fb1a01" stroke-width="3.9" points="5492.47,-338.148 5489,-328.248 5485.54,-338.148 5492.47,-338.148"/>
<text text-anchor="middle" x="5506" y="-351" font-family="Arial" font-size="10.00" fill="#fb1a01">97.48%</text>
<text text-anchor="middle" x="5506" y="-340" font-family="Arial" font-size="10.00" fill="#fb1a01">4442×</text>
</g>
<!-- 9 -->
<g id="node8" class="node"><title>9</title>
<polygon fill="#eb7c03" stroke="#eb7c03" points="5328.25,-236 4771.75,-236 4771.75,-184 5328.25,-184 5328.25,-236"/>
<text text-anchor="middle" x="5050" y="-224" font-family="Arial" font-size="10.00" fill="#ffffff">MonteCarloScanMatcher::process_scan(RobotState const&amp;, TransformedLaserScan const&amp;, GridMap const&amp;, RobotState&amp;)</text>
<text text-anchor="middle" x="5050" y="-213" font-family="Arial" font-size="10.00" fill="#ffffff">86.94%</text>
<text text-anchor="middle" x="5050" y="-202" font-family="Arial" font-size="10.00" fill="#ffffff">(0.03%)</text>
<text text-anchor="middle" x="5050" y="-191" font-family="Arial" font-size="10.00" fill="#ffffff">4458×</text>
</g>
<!-- 8&#45;&gt;9 -->
<g id="edge7" class="edge"><title>8&#45;&gt;9</title>
<path fill="none" stroke="#eb7c03" stroke-width="3.48" d="M5367.01,-275.99C5309.32,-264.164 5240.37,-250.027 5181.52,-237.963"/>
<polygon fill="#eb7c03" stroke="#eb7c03" stroke-width="3.48" points="5181.93,-234.724 5172.17,-236.045 5180.62,-241.102 5181.93,-234.724"/>
<text text-anchor="middle" x="5339" y="-259" font-family="Arial" font-size="10.00" fill="#eb7c03">86.94%</text>
<text text-anchor="middle" x="5339" y="-248" font-family="Arial" font-size="10.00" fill="#eb7c03">4458×</text>
</g>
<!-- 19 -->
<g id="node9" class="node"><title>19</title>
<polygon fill="#0d3d80" stroke="#0d3d80" points="6565,-236 6257,-236 6257,-184 6565,-184 6565,-236"/>
<text text-anchor="middle" x="6411" y="-224" font-family="Arial" font-size="10.00" fill="#ffffff">LaserScanGridWorld::handle_observation(TransformedLaserScan&amp;)</text>
<text text-anchor="middle" x="6411" y="-213" font-family="Arial" font-size="10.00" fill="#ffffff">10.52%</text>
<text text-anchor="middle" x="6411" y="-202" font-family="Arial" font-size="10.00" fill="#ffffff">(0.15%)</text>
<text text-anchor="middle" x="6411" y="-191" font-family="Arial" font-size="10.00" fill="#ffffff">4486×</text>
</g>
<!-- 8&#45;&gt;19 -->
<g id="edge8" class="edge"><title>8&#45;&gt;19</title>
<path fill="none" stroke="#0d3d80" stroke-width="0.5" d="M5619.63,-288.248C5786.27,-271.982 6074.24,-243.872 6253.03,-226.42"/>
<polygon fill="#0d3d80" stroke="#0d3d80" stroke-width="0.5" points="6253.35,-227.62 6256.71,-226.061 6253.11,-225.182 6253.35,-227.62"/>
<text text-anchor="middle" x="6076" y="-259" font-family="Arial" font-size="10.00" fill="#0d3d80">10.52%</text>
<text text-anchor="middle" x="6076" y="-248" font-family="Arial" font-size="10.00" fill="#0d3d80">4486×</text>
</g>
<!-- 13 -->
<g id="node10" class="node"><title>13</title>
<polygon fill="#0c968c" stroke="#0c968c" points="1960.25,-144 -0.25,-144 -0.25,-92 1960.25,-92 1960.25,-144"/>
<text text-anchor="middle" x="980" y="-132" font-family="Arial" font-size="10.00" fill="#ffffff">std::function&lt;void (std::shared_ptr&lt;GridScanMatcherObserver&gt;)&gt;::function&lt;MonteCarloScanMatcher::process_scan(RobotState const&amp;, TransformedLaserScan const&amp;, GridMap const&amp;, RobotState&amp;)::{lambda(std::shared_ptr&lt;GridScanMatcherObserver&gt;)#1}, void&gt;(MonteCarloScanMatcher::process_scan(RobotState const&amp;, TransformedLaserScan const&amp;, GridMap const&amp;, RobotState&amp;)::{lambda(std::shared_ptr&lt;GridScanMatcherObserver&gt;)#1})</text>
<text text-anchor="middle" x="980" y="-121" font-family="Arial" font-size="10.00" fill="#ffffff">26.66%</text>
<text text-anchor="middle" x="980" y="-110" font-family="Arial" font-size="10.00" fill="#ffffff">(0.00%)</text>
<text text-anchor="middle" x="980" y="-99" font-family="Arial" font-size="10.00" fill="#ffffff">4483×</text>
</g>
<!-- 9&#45;&gt;13 -->
<g id="edge9" class="edge"><title>9&#45;&gt;13</title>
<path fill="none" stroke="#0c968c" stroke-width="1.07" d="M4771.66,-208.665C4265.48,-207.384 3160.45,-201.487 2229,-175 1975.65,-167.796 1693.56,-155.513 1461.66,-144.283"/>
<polygon fill="#0c968c" stroke="#0c968c" stroke-width="1.07" points="1461.48,-142.452 1456.2,-144.018 1461.3,-146.087 1461.48,-142.452"/>
<text text-anchor="middle" x="2246" y="-167" font-family="Arial" font-size="10.00" fill="#0c968c">26.66%</text>
<text text-anchor="middle" x="2246" y="-156" font-family="Arial" font-size="10.00" fill="#0c968c">4483×</text>
</g>
<!-- 14 -->
<g id="node11" class="node"><title>14</title>
<polygon fill="#0c958d" stroke="#0c958d" points="2142.25,-144 1969.75,-144 1969.75,-92 2142.25,-92 2142.25,-144"/>
<text text-anchor="middle" x="2056" y="-132" font-family="Arial" font-size="10.00" fill="#ffffff">GridMap::GridMap(GridMap const&amp;)</text>
<text text-anchor="middle" x="2056" y="-121" font-family="Arial" font-size="10.00" fill="#ffffff">26.44%</text>
<text text-anchor="middle" x="2056" y="-110" font-family="Arial" font-size="10.00" fill="#ffffff">(0.00%)</text>
<text text-anchor="middle" x="2056" y="-99" font-family="Arial" font-size="10.00" fill="#ffffff">4468×</text>
</g>
<!-- 9&#45;&gt;14 -->
<g id="edge10" class="edge"><title>9&#45;&gt;14</title>
<path fill="none" stroke="#0c958d" stroke-width="1.06" d="M4771.75,-206.659C4099.63,-200.45 2422.97,-181.473 2147.7,-144.033"/>
<polygon fill="#0c958d" stroke="#0c958d" stroke-width="1.06" points="2147.9,-142.258 2142.6,-143.313 2147.4,-145.793 2147.9,-142.258"/>
<text text-anchor="middle" x="2788" y="-167" font-family="Arial" font-size="10.00" fill="#0c958d">26.44%</text>
<text text-anchor="middle" x="2788" y="-156" font-family="Arial" font-size="10.00" fill="#0c958d">4468×</text>
</g>
<!-- 17 -->
<g id="node12" class="node"><title>17</title>
<polygon fill="#0c5085" stroke="#0c5085" points="4398.25,-144 2151.75,-144 2151.75,-92 4398.25,-92 4398.25,-144"/>
<text text-anchor="middle" x="3275" y="-132" font-family="Arial" font-size="10.00" fill="#ffffff">std::_Function_base::_Base_manager&lt;MonteCarloScanMatcher::process_scan(RobotState const&amp;, TransformedLaserScan const&amp;, GridMap const&amp;, RobotState&amp;)::{lambda(std::shared_ptr&lt;GridScanMatcherObserver&gt;)#1}&gt;::_M_manager(std::_Any_data&amp;, std::_Function_base::_Base_manager&lt;MonteCarloScanMatcher::process_scan(RobotState const&amp;, TransformedLaserScan const&amp;, GridMap const&amp;, RobotState&amp;)::{lambda(std::shared_ptr&lt;GridScanMatcherObserver&gt;)#1}&gt; const&amp;, std::_Manager_operation)</text>
<text text-anchor="middle" x="3275" y="-121" font-family="Arial" font-size="10.00" fill="#ffffff">14.10%</text>
<text text-anchor="middle" x="3275" y="-110" font-family="Arial" font-size="10.00" fill="#ffffff">(1.52%)</text>
<text text-anchor="middle" x="3275" y="-99" font-family="Arial" font-size="10.00" fill="#ffffff">4485×</text>
</g>
<!-- 9&#45;&gt;17 -->
<g id="edge11" class="edge"><title>9&#45;&gt;17</title>
<path fill="none" stroke="#0c5085" stroke-width="0.56" d="M4771.68,-194.888C4504.54,-181.343 4095.1,-160.583 3771.95,-144.198"/>
<polygon fill="#0c5085" stroke="#0c5085" stroke-width="0.56" points="3772.02,-142.869 3768.15,-144.005 3771.88,-145.526 3772.02,-142.869"/>
<text text-anchor="middle" x="4391" y="-167" font-family="Arial" font-size="10.00" fill="#0c5085">14.10%</text>
<text text-anchor="middle" x="4391" y="-156" font-family="Arial" font-size="10.00" fill="#0c5085">4485×</text>
</g>
<!-- 18 -->
<g id="node13" class="node"><title>18</title>
<polygon fill="#0d5085" stroke="#0d5085" points="5280,-144 4408,-144 4408,-92 5280,-92 5280,-144"/>
<text text-anchor="middle" x="4844" y="-132" font-family="Arial" font-size="10.00" fill="#ffffff">MonteCarloScanMatcher::process_scan(RobotState const&amp;, TransformedLaserScan const&amp;, GridMap const&amp;, RobotState&amp;)::{lambda(std::shared_ptr&lt;GridScanMatcherObserver&gt;)#1}::~shared_ptr()</text>
<text text-anchor="middle" x="4844" y="-121" font-family="Arial" font-size="10.00" fill="#ffffff">13.97%</text>
<text text-anchor="middle" x="4844" y="-110" font-family="Arial" font-size="10.00" fill="#ffffff">(1.39%)</text>
<text text-anchor="middle" x="4844" y="-99" font-family="Arial" font-size="10.00" fill="#ffffff">4481×</text>
</g>
<!-- 9&#45;&gt;18 -->
<g id="edge12" class="edge"><title>9&#45;&gt;18</title>
<path fill="none" stroke="#0d5085" stroke-width="0.56" d="M4992.62,-183.93C4965.39,-172.033 4932.83,-157.807 4905.13,-145.708"/>
<polygon fill="#0d5085" stroke="#0d5085" stroke-width="0.56" points="4905.34,-144.386 4901.43,-144.092 4904.3,-146.76 4905.34,-144.386"/>
<text text-anchor="middle" x="4989" y="-167" font-family="Arial" font-size="10.00" fill="#0d5085">13.97%</text>
<text text-anchor="middle" x="4989" y="-156" font-family="Arial" font-size="10.00" fill="#0d5085">4481×</text>
</g>
<!-- 21 -->
<g id="node14" class="node"><title>21</title>
<polygon fill="#0d1f78" stroke="#0d1f78" points="5841,-144 5289,-144 5289,-92 5841,-92 5841,-144"/>
<text text-anchor="middle" x="5565" y="-132" font-family="Arial" font-size="10.00" fill="#ffffff">TinyScanCostEstimator::estimate_scan_cost(RobotState const&amp;, TransformedLaserScan const&amp;, GridMap const&amp;, double)</text>
<text text-anchor="middle" x="5565" y="-121" font-family="Arial" font-size="10.00" fill="#ffffff">4.35%</text>
<text text-anchor="middle" x="5565" y="-110" font-family="Arial" font-size="10.00" fill="#ffffff">(3.99%)</text>
<text text-anchor="middle" x="5565" y="-99" font-family="Arial" font-size="10.00" fill="#ffffff">98336×</text>
</g>
<!-- 9&#45;&gt;21 -->
<g id="edge13" class="edge"><title>9&#45;&gt;21</title>
<path fill="none" stroke="#0d1f78" stroke-width="0.5" d="M5193.11,-183.99C5263.15,-171.751 5347.35,-157.036 5417.91,-144.705"/>
<polygon fill="#0d1f78" stroke="#0d1f78" stroke-width="0.5" points="5418.45,-145.855 5421.69,-144.045 5418.03,-143.441 5418.45,-145.855"/>
<text text-anchor="middle" x="5385.5" y="-167" font-family="Arial" font-size="10.00" fill="#0d1f78">4.35%</text>
<text text-anchor="middle" x="5385.5" y="-156" font-family="Arial" font-size="10.00" fill="#0d1f78">98336×</text>
</g>
<!-- 25 -->
<g id="node15" class="node"><title>25</title>
<polygon fill="#0d1074" stroke="#0d1074" points="6386,-144 5850,-144 5850,-92 6386,-92 6386,-144"/>
<text text-anchor="middle" x="6118" y="-132" font-family="Arial" font-size="10.00" fill="#ffffff">std::vector&lt;ScanPoint, std::allocator&lt;ScanPoint&gt; &gt;::vector(std::vector&lt;ScanPoint, std::allocator&lt;ScanPoint&gt; &gt; const&amp;)</text>
<text text-anchor="middle" x="6118" y="-121" font-family="Arial" font-size="10.00" fill="#ffffff">0.77%</text>
<text text-anchor="middle" x="6118" y="-110" font-family="Arial" font-size="10.00" fill="#ffffff">(0.77%)</text>
<text text-anchor="middle" x="6118" y="-99" font-family="Arial" font-size="10.00" fill="#ffffff">206641×</text>
</g>
<!-- 9&#45;&gt;25 -->
<g id="edge14" class="edge"><title>9&#45;&gt;25</title>
<path fill="none" stroke="#0d1074" stroke-width="0.5" d="M5328.65,-186.944C5481.44,-174.675 5674.19,-158.91 5846,-144 5846.16,-143.986 5846.32,-143.972 5846.49,-143.958"/>
<polygon fill="#0d1074" stroke="#0d1074" stroke-width="0.5" points="5846.53,-145.184 5849.91,-143.66 5846.31,-142.743 5846.53,-145.184"/>
<text text-anchor="middle" x="5756" y="-167" font-family="Arial" font-size="10.00" fill="#0d1074">0.75%</text>
<text text-anchor="middle" x="5756" y="-156" font-family="Arial" font-size="10.00" fill="#0d1074">202156×</text>
</g>
<!-- 27 -->
<g id="node16" class="node"><title>27</title>
<polygon fill="#0d0f74" stroke="#0d0f74" points="6613,-144 6395,-144 6395,-92 6613,-92 6613,-144"/>
<text text-anchor="middle" x="6504" y="-132" font-family="Arial" font-size="10.00" fill="#ffffff">TinyScanMatcher::sample_pose(RobotState&amp;)</text>
<text text-anchor="middle" x="6504" y="-121" font-family="Arial" font-size="10.00" fill="#ffffff">0.64%</text>
<text text-anchor="middle" x="6504" y="-110" font-family="Arial" font-size="10.00" fill="#ffffff">(0.46%)</text>
<text text-anchor="middle" x="6504" y="-99" font-family="Arial" font-size="10.00" fill="#ffffff">93833×</text>
</g>
<!-- 9&#45;&gt;27 -->
<g id="edge15" class="edge"><title>9&#45;&gt;27</title>
<path fill="none" stroke="#0d0f74" stroke-width="0.5" d="M5328.57,-201.118C5659.96,-190.753 6193.21,-170.681 6391,-144 6391.16,-143.978 6391.32,-143.956 6391.49,-143.934"/>
<polygon fill="#0d0f74" stroke="#0d0f74" stroke-width="0.5" points="6391.61,-145.154 6394.9,-143.455 6391.27,-142.728 6391.61,-145.154"/>
<text text-anchor="middle" x="6322.5" y="-167" font-family="Arial" font-size="10.00" fill="#0d0f74">0.64%</text>
<text text-anchor="middle" x="6322.5" y="-156" font-family="Arial" font-size="10.00" fill="#0d0f74">93833×</text>
</g>
<!-- 20 -->
<g id="node22" class="node"><title>20</title>
<polygon fill="#0d3c80" stroke="#0d3c80" points="7015.25,-144 6622.75,-144 6622.75,-92 7015.25,-92 7015.25,-144"/>
<text text-anchor="middle" x="6819" y="-132" font-family="Arial" font-size="10.00" fill="#ffffff">TinyWorld::handle_scan_point(GridMap&amp;, double, double, double, double, bool, double)</text>
<text text-anchor="middle" x="6819" y="-121" font-family="Arial" font-size="10.00" fill="#ffffff">10.36%</text>
<text text-anchor="middle" x="6819" y="-110" font-family="Arial" font-size="10.00" fill="#ffffff">(4.81%)</text>
<text text-anchor="middle" x="6819" y="-99" font-family="Arial" font-size="10.00" fill="#ffffff">4017999×</text>
</g>
<!-- 19&#45;&gt;20 -->
<g id="edge22" class="edge"><title>19&#45;&gt;20</title>
<path fill="none" stroke="#0d3c80" stroke-width="0.5" d="M6524.38,-183.99C6579.64,-171.799 6646.04,-157.153 6701.8,-144.852"/>
<polygon fill="#0d3c80" stroke="#0d3c80" stroke-width="0.5" points="6702.31,-145.996 6705.46,-144.045 6701.78,-143.603 6702.31,-145.996"/>
<text text-anchor="middle" x="6684.5" y="-167" font-family="Arial" font-size="10.00" fill="#0d3c80">10.36%</text>
<text text-anchor="middle" x="6684.5" y="-156" font-family="Arial" font-size="10.00" fill="#0d3c80">4017999×</text>
</g>
<!-- 11 -->
<g id="node19" class="node"><title>11</title>
<polygon fill="#21ba09" stroke="#21ba09" points="2292.25,-52 487.75,-52 487.75,-0 2292.25,-0 2292.25,-52"/>
<text text-anchor="middle" x="1390" y="-40" font-family="Arial" font-size="10.00" fill="#ffffff">std::vector&lt;std::vector&lt;std::shared_ptr&lt;GridCell&gt;, std::allocator&lt;std::shared_ptr&lt;GridCell&gt; &gt; &gt;, std::allocator&lt;std::vector&lt;std::shared_ptr&lt;GridCell&gt;, std::allocator&lt;std::shared_ptr&lt;GridCell&gt; &gt; &gt; &gt; &gt;::vector(std::vector&lt;std::vector&lt;std::shared_ptr&lt;GridCell&gt;, std::allocator&lt;std::shared_ptr&lt;GridCell&gt; &gt; &gt;, std::allocator&lt;std::vector&lt;std::shared_ptr&lt;GridCell&gt;, std::allocator&lt;std::shared_ptr&lt;GridCell&gt; &gt; &gt; &gt; &gt; const&amp;)</text>
<text text-anchor="middle" x="1390" y="-29" font-family="Arial" font-size="10.00" fill="#ffffff">53.36%</text>
<text text-anchor="middle" x="1390" y="-18" font-family="Arial" font-size="10.00" fill="#ffffff">(53.36%)</text>
<text text-anchor="middle" x="1390" y="-7" font-family="Arial" font-size="10.00" fill="#ffffff">8977×</text>
</g>
<!-- 13&#45;&gt;11 -->
<g id="edge18" class="edge"><title>13&#45;&gt;11</title>
<path fill="none" stroke="#0c968d" stroke-width="1.07" d="M1093.94,-91.9898C1148.92,-79.921 1214.86,-65.4447 1270.55,-53.2211"/>
<polygon fill="#0c968d" stroke="#0c968d" stroke-width="1.07" points="1271.22,-54.938 1275.9,-52.0453 1270.44,-51.3826 1271.22,-54.938"/>
<text text-anchor="middle" x="1251" y="-75" font-family="Arial" font-size="10.00" fill="#0c968d">26.64%</text>
<text text-anchor="middle" x="1251" y="-64" font-family="Arial" font-size="10.00" fill="#0c968d">4483×</text>
</g>
<!-- 14&#45;&gt;11 -->
<g id="edge19" class="edge"><title>14&#45;&gt;11</title>
<path fill="none" stroke="#0c958d" stroke-width="1.06" d="M1969.41,-93.0746C1967.59,-92.701 1965.79,-92.3421 1964,-92 1876.72,-75.3 1781.09,-62.3733 1693.35,-52.6086"/>
<polygon fill="#0c958d" stroke="#0c958d" stroke-width="1.06" points="1693.38,-50.8163 1688.11,-52.0289 1692.98,-54.3646 1693.38,-50.8163"/>
<text text-anchor="middle" x="1920" y="-75" font-family="Arial" font-size="10.00" fill="#0c958d">26.44%</text>
<text text-anchor="middle" x="1920" y="-64" font-family="Arial" font-size="10.00" fill="#0c958d">4449×</text>
</g>
<!-- 16 -->
<g id="node21" class="node"><title>16</title>
<polygon fill="#0c9492" stroke="#0c9492" points="3825.25,-52 3510.75,-52 3510.75,-0 3825.25,-0 3825.25,-52"/>
<text text-anchor="middle" x="3668" y="-40" font-family="Arial" font-size="10.00" fill="#ffffff">std::_Sp_counted_base&lt;(__gnu_cxx::_Lock_policy)2&gt;::_M_release()</text>
<text text-anchor="middle" x="3668" y="-29" font-family="Arial" font-size="10.00" fill="#ffffff">25.35%</text>
<text text-anchor="middle" x="3668" y="-18" font-family="Arial" font-size="10.00" fill="#ffffff">(25.35%)</text>
<text text-anchor="middle" x="3668" y="-7" font-family="Arial" font-size="10.00" fill="#ffffff">1352810560×</text>
</g>
<!-- 17&#45;&gt;16 -->
<g id="edge20" class="edge"><title>17&#45;&gt;16</title>
<path fill="none" stroke="#0d4883" stroke-width="0.5" d="M3384.21,-91.9898C3437.44,-79.7993 3501.4,-65.1526 3555.11,-52.8521"/>
<polygon fill="#0d4883" stroke="#0d4883" stroke-width="0.5" points="3555.5,-54.0208 3558.64,-52.0453 3554.95,-51.6326 3555.5,-54.0208"/>
<text text-anchor="middle" x="3546" y="-75" font-family="Arial" font-size="10.00" fill="#0d4883">12.58%</text>
<text text-anchor="middle" x="3546" y="-64" font-family="Arial" font-size="10.00" fill="#0d4883">670950528×</text>
</g>
<!-- 18&#45;&gt;16 -->
<g id="edge21" class="edge"><title>18&#45;&gt;16</title>
<path fill="none" stroke="#0d4883" stroke-width="0.5" d="M4517.2,-91.9898C4293.09,-74.8382 4005.43,-52.824 3829.03,-39.3238"/>
<polygon fill="#0d4883" stroke="#0d4883" stroke-width="0.5" points="3828.99,-38.092 3825.4,-39.0462 3828.8,-40.5348 3828.99,-38.092"/>
<text text-anchor="middle" x="4423" y="-75" font-family="Arial" font-size="10.00" fill="#0d4883">12.57%</text>
<text text-anchor="middle" x="4423" y="-64" font-family="Arial" font-size="10.00" fill="#0d4883">670912946×</text>
</g>
<!-- 10 -->
<g id="node17" class="node"><title>10</title>
<polygon fill="#5cc508" stroke="#5cc508" points="6333,-1145.5 5799,-1145.5 5799,-1104.5 6333,-1104.5 6333,-1145.5"/>
<text text-anchor="middle" x="6066" y="-1133.5" font-family="Arial" font-size="10.00" fill="#ffffff">tf::MessageFilter&lt;sensor_msgs::LaserScan_&lt;std::allocator&lt;void&gt; &gt; &gt;::maxRateTimerCallback(ros::TimerEvent const&amp;)</text>
<text text-anchor="middle" x="6066" y="-1122.5" font-family="Arial" font-size="10.00" fill="#ffffff">61.13%</text>
<text text-anchor="middle" x="6066" y="-1111.5" font-family="Arial" font-size="10.00" fill="#ffffff">(0.00%)</text>
</g>
<!-- 45 -->
<g id="node18" class="node"><title>45</title>
<polygon fill="#5cc508" stroke="#5cc508" points="6263,-1064 5869,-1064 5869,-1012 6263,-1012 6263,-1064"/>
<text text-anchor="middle" x="6066" y="-1052" font-family="Arial" font-size="10.00" fill="#ffffff">tf::MessageFilter&lt;sensor_msgs::LaserScan_&lt;std::allocator&lt;void&gt; &gt; &gt;::testMessages()</text>
<text text-anchor="middle" x="6066" y="-1041" font-family="Arial" font-size="10.00" fill="#ffffff">61.08%</text>
<text text-anchor="middle" x="6066" y="-1030" font-family="Arial" font-size="10.00" fill="#ffffff">(0.02%)</text>
<text text-anchor="middle" x="6066" y="-1019" font-family="Arial" font-size="10.00" fill="#ffffff">11445×</text>
</g>
<!-- 10&#45;&gt;45 -->
<g id="edge16" class="edge"><title>10&#45;&gt;45</title>
<path fill="none" stroke="#5cc508" stroke-width="2.44" d="M6066,-1104.29C6066,-1094.75 6066,-1083.04 6066,-1072.19"/>
<polygon fill="#5cc508" stroke="#5cc508" stroke-width="2.44" points="6068.73,-1071.9 6066,-1064.1 6063.27,-1071.9 6068.73,-1071.9"/>
<text text-anchor="middle" x="6083" y="-1087" font-family="Arial" font-size="10.00" fill="#5cc508">61.07%</text>
<text text-anchor="middle" x="6083" y="-1076" font-family="Arial" font-size="10.00" fill="#5cc508">7096×</text>
</g>
<!-- 49 -->
<g id="node27" class="node"><title>49</title>
<polygon fill="#5cc508" stroke="#5cc508" points="6446.25,-972 5685.75,-972 5685.75,-920 6446.25,-920 6446.25,-972"/>
<text text-anchor="middle" x="6066" y="-960" font-family="Arial" font-size="10.00" fill="#ffffff">tf::MessageFilter&lt;sensor_msgs::LaserScan_&lt;std::allocator&lt;void&gt; &gt; &gt;::testMessage(ros::MessageEvent&lt;sensor_msgs::LaserScan_&lt;std::allocator&lt;void&gt; &gt; const&gt; const&amp;)</text>
<text text-anchor="middle" x="6066" y="-949" font-family="Arial" font-size="10.00" fill="#ffffff">61.05%</text>
<text text-anchor="middle" x="6066" y="-938" font-family="Arial" font-size="10.00" fill="#ffffff">(0.02%)</text>
<text text-anchor="middle" x="6066" y="-927" font-family="Arial" font-size="10.00" fill="#ffffff">14082×</text>
</g>
<!-- 45&#45;&gt;49 -->
<g id="edge26" class="edge"><title>45&#45;&gt;49</title>
<path fill="none" stroke="#5cc508" stroke-width="2.44" d="M6066,-1011.93C6066,-1002.07 6066,-990.6 6066,-980.073"/>
<polygon fill="#5cc508" stroke="#5cc508" stroke-width="2.44" points="6068.73,-980.048 6066,-972.248 6063.27,-980.048 6068.73,-980.048"/>
<text text-anchor="middle" x="6083" y="-995" font-family="Arial" font-size="10.00" fill="#5cc508">61.04%</text>
<text text-anchor="middle" x="6083" y="-984" font-family="Arial" font-size="10.00" fill="#5cc508">9713×</text>
</g>
<!-- 12 -->
<g id="node20" class="node"><title>12</title>
<polygon fill="#0ba458" stroke="#0ba458" points="5676,-966.5 4886,-966.5 4886,-925.5 5676,-925.5 5676,-966.5"/>
<text text-anchor="middle" x="5281" y="-954.5" font-family="Arial" font-size="10.00" fill="#ffffff">ros::SubscriptionCallbackHelperT&lt;ros::MessageEvent&lt;sensor_msgs::LaserScan_&lt;std::allocator&lt;void&gt; &gt; const&gt; const&amp;, void&gt;::call(ros::SubscriptionCallbackHelperCallParams&amp;)</text>
<text text-anchor="middle" x="5281" y="-943.5" font-family="Arial" font-size="10.00" fill="#ffffff">37.37%</text>
<text text-anchor="middle" x="5281" y="-932.5" font-family="Arial" font-size="10.00" fill="#ffffff">(0.00%)</text>
</g>
<!-- 12&#45;&gt;2 -->
<g id="edge17" class="edge"><title>12&#45;&gt;2</title>
<path fill="none" stroke="#0ba459" stroke-width="1.49" d="M5326.13,-925.471C5355.04,-912.963 5393,-896.54 5424.99,-882.696"/>
<polygon fill="#0ba459" stroke="#0ba459" stroke-width="1.49" points="5426.14,-884.524 5430.89,-880.142 5424.45,-880.605 5426.14,-884.524"/>
<text text-anchor="middle" x="5427" y="-903" font-family="Arial" font-size="10.00" fill="#0ba459">37.34%</text>
<text text-anchor="middle" x="5427" y="-892" font-family="Arial" font-size="10.00" fill="#0ba459">4339×</text>
</g>
<!-- 22 -->
<g id="node23" class="node"><title>22</title>
<polygon fill="#0d1776" stroke="#0d1776" points="6734.25,-52 6359.75,-52 6359.75,-0 6734.25,-0 6734.25,-52"/>
<text text-anchor="middle" x="6547" y="-40" font-family="Arial" font-size="10.00" fill="#ffffff">DiscreteLine2D::DiscreteLine2D(DiscretePoint2D const&amp;, DiscretePoint2D const&amp;)</text>
<text text-anchor="middle" x="6547" y="-29" font-family="Arial" font-size="10.00" fill="#ffffff">2.47%</text>
<text text-anchor="middle" x="6547" y="-18" font-family="Arial" font-size="10.00" fill="#ffffff">(2.06%)</text>
<text text-anchor="middle" x="6547" y="-7" font-family="Arial" font-size="10.00" fill="#ffffff">4017868×</text>
</g>
<!-- 20&#45;&gt;22 -->
<g id="edge23" class="edge"><title>20&#45;&gt;22</title>
<path fill="none" stroke="#0d1776" stroke-width="0.5" d="M6743.23,-91.93C6706.84,-79.8875 6663.23,-65.4587 6626.38,-53.2645"/>
<polygon fill="#0d1776" stroke="#0d1776" stroke-width="0.5" points="6626.54,-52.028 6622.83,-52.0915 6625.77,-54.354 6626.54,-52.028"/>
<text text-anchor="middle" x="6736.5" y="-75" font-family="Arial" font-size="10.00" fill="#0d1776">2.47%</text>
<text text-anchor="middle" x="6736.5" y="-64" font-family="Arial" font-size="10.00" fill="#0d1776">4017868×</text>
</g>
<!-- 23 -->
<g id="node24" class="node"><title>23</title>
<polygon fill="#0d1274" stroke="#0d1274" points="6893.5,-52 6744.5,-52 6744.5,-0 6893.5,-0 6893.5,-52"/>
<text text-anchor="middle" x="6819" y="-40" font-family="Arial" font-size="10.00" fill="#ffffff">GridMap::resize_bound(int, int)</text>
<text text-anchor="middle" x="6819" y="-29" font-family="Arial" font-size="10.00" fill="#ffffff">1.23%</text>
<text text-anchor="middle" x="6819" y="-18" font-family="Arial" font-size="10.00" fill="#ffffff">(1.23%)</text>
<text text-anchor="middle" x="6819" y="-7" font-family="Arial" font-size="10.00" fill="#ffffff">293967516×</text>
</g>
<!-- 20&#45;&gt;23 -->
<g id="edge24" class="edge"><title>20&#45;&gt;23</title>
<path fill="none" stroke="#0d1274" stroke-width="0.5" d="M6819,-91.93C6819,-80.7116 6819,-67.4223 6819,-55.7978"/>
<polygon fill="#0d1274" stroke="#0d1274" stroke-width="0.5" points="6820.23,-55.7477 6819,-52.2477 6817.78,-55.7478 6820.23,-55.7477"/>
<text text-anchor="middle" x="6846" y="-75" font-family="Arial" font-size="10.00" fill="#0d1274">1.23%</text>
<text text-anchor="middle" x="6846" y="-64" font-family="Arial" font-size="10.00" fill="#0d1274">293967516×</text>
</g>
<!-- 26 -->
<g id="node25" class="node"><title>26</title>
<polygon fill="#0d1074" stroke="#0d1074" points="7140.25,-52 6903.75,-52 6903.75,-0 7140.25,-0 7140.25,-52"/>
<text text-anchor="middle" x="7022" y="-40" font-family="Arial" font-size="10.00" fill="#ffffff">AvgTinyCell::set_value(Occupancy const&amp;, double)</text>
<text text-anchor="middle" x="7022" y="-29" font-family="Arial" font-size="10.00" fill="#ffffff">0.77%</text>
<text text-anchor="middle" x="7022" y="-18" font-family="Arial" font-size="10.00" fill="#ffffff">(0.77%)</text>
<text text-anchor="middle" x="7022" y="-7" font-family="Arial" font-size="10.00" fill="#ffffff">150996374×</text>
</g>
<!-- 20&#45;&gt;26 -->
<g id="edge25" class="edge"><title>20&#45;&gt;26</title>
<path fill="none" stroke="#0d1074" stroke-width="0.5" d="M6875.55,-91.93C6902.49,-79.9846 6934.73,-65.6913 6962.09,-53.5599"/>
<polygon fill="#0d1074" stroke="#0d1074" stroke-width="0.5" points="6962.7,-54.63 6965.4,-52.0915 6961.71,-52.3903 6962.7,-54.63"/>
<text text-anchor="middle" x="6971" y="-75" font-family="Arial" font-size="10.00" fill="#0d1074">0.75%</text>
<text text-anchor="middle" x="6971" y="-64" font-family="Arial" font-size="10.00" fill="#0d1074">146977996×</text>
</g>
<!-- 24 -->
<g id="node26" class="node"><title>24</title>
<polygon fill="#0d1174" stroke="#0d1174" points="6740,-1145.5 6342,-1145.5 6342,-1104.5 6740,-1104.5 6740,-1145.5"/>
<text text-anchor="middle" x="6541" y="-1133.5" font-family="Arial" font-size="10.00" fill="#ffffff">void boost::throw_exception&lt;boost::bad_function_call&gt;(boost::bad_function_call const&amp;)</text>
<text text-anchor="middle" x="6541" y="-1122.5" font-family="Arial" font-size="10.00" fill="#ffffff">1.05%</text>
<text text-anchor="middle" x="6541" y="-1111.5" font-family="Arial" font-size="10.00" fill="#ffffff">(1.05%)</text>
</g>
<!-- 49&#45;&gt;2 -->
<g id="edge27" class="edge"><title>49&#45;&gt;2</title>
<path fill="none" stroke="#5bc508" stroke-width="2.44" d="M5905.66,-919.99C5828.36,-907.933 5735.65,-893.473 5657.34,-881.257"/>
<polygon fill="#5bc508" stroke="#5bc508" stroke-width="2.44" points="5657.45,-878.511 5649.32,-880.006 5656.6,-883.906 5657.45,-878.511"/>
<text text-anchor="middle" x="5863" y="-903" font-family="Arial" font-size="10.00" fill="#5bc508">61.02%</text>
<text text-anchor="middle" x="5863" y="-892" font-family="Arial" font-size="10.00" fill="#5bc508">4449×</text>
</g>
</g>
</svg>
