<?xml version="1.0" encoding="UTF-8" standalone="no"?>
<!DOCTYPE svg PUBLIC "-//W3C//DTD SVG 1.1//EN"
 "http://www.w3.org/Graphics/SVG/1.1/DTD/svg11.dtd">
<!-- Generated by graphviz version 2.36.0 (20140111.2315)
 -->
<!-- Title: %3 Pages: 1 -->
<svg width="232pt" height="152pt"
 viewBox="0.00 0.00 232.00 152.00" xmlns="http://www.w3.org/2000/svg" xmlns:xlink="http://www.w3.org/1999/xlink">
<g id="graph0" class="graph" transform="scale(1 1) rotate(0) translate(4 148)">
<title>%3</title>
<polygon fill="white" stroke="none" points="-4,4 -4,-148 228,-148 228,4 -4,4"/>
<!-- 8 -->
<g id="node1" class="node"><title>8</title>
<polygon fill="#ff0000" stroke="#ff0000" points="172.25,-144 51.75,-144 51.75,-92 172.25,-92 172.25,-144"/>
<text text-anchor="middle" x="112" y="-132" font-family="Arial" font-size="10.00" fill="#ffffff">_GLOBAL__sub_I_main</text>
<text text-anchor="middle" x="112" y="-121" font-family="Arial" font-size="10.00" fill="#ffffff">100.00%</text>
<text text-anchor="middle" x="112" y="-110" font-family="Arial" font-size="10.00" fill="#ffffff">(100.00%)</text>
<text text-anchor="middle" x="112" y="-99" font-family="Arial" font-size="10.00" fill="#ffffff">1×</text>
</g>
<!-- 9 -->
<g id="node2" class="node"><title>9</title>
<polygon fill="#ff0000" stroke="#ff0000" points="224.25,-52 -0.25,-52 -0.25,-0 224.25,-0 224.25,-52"/>
<text text-anchor="middle" x="112" y="-40" font-family="Arial" font-size="10.00" fill="#ffffff">__static_initialization_and_destruction_0(int, int)</text>
<text text-anchor="middle" x="112" y="-29" font-family="Arial" font-size="10.00" fill="#ffffff">100.00%</text>
<text text-anchor="middle" x="112" y="-18" font-family="Arial" font-size="10.00" fill="#ffffff">(100.00%)</text>
<text text-anchor="middle" x="112" y="-7" font-family="Arial" font-size="10.00" fill="#ffffff">1×</text>
</g>
<!-- 8&#45;&gt;9 -->
<g id="edge1" class="edge"><title>8&#45;&gt;9</title>
<path fill="none" stroke="#ff0000" stroke-width="4" d="M112,-91.93C112,-82.7425 112,-72.1661 112,-62.2526"/>
<polygon fill="#ff0000" stroke="#ff0000" stroke-width="4" points="115.5,-62.2477 112,-52.2477 108.5,-62.2478 115.5,-62.2477"/>
<text text-anchor="middle" x="131.5" y="-75" font-family="Arial" font-size="10.00" fill="#ff0000">100.00%</text>
<text text-anchor="middle" x="131.5" y="-64" font-family="Arial" font-size="10.00" fill="#ff0000">1×</text>
</g>
</g>
</svg>
