<?xml version="1.0" encoding="UTF-8" standalone="no"?>
<!DOCTYPE svg PUBLIC "-//W3C//DTD SVG 1.1//EN"
 "http://www.w3.org/Graphics/SVG/1.1/DTD/svg11.dtd">
<!-- Generated by graphviz version 2.36.0 (20140111.2315)
 -->
<!-- Title: %3 Pages: 1 -->
<svg width="7399pt" height="1154pt"
 viewBox="0.00 0.00 7399.00 1154.00" xmlns="http://www.w3.org/2000/svg" xmlns:xlink="http://www.w3.org/1999/xlink">
<g id="graph0" class="graph" transform="scale(1 1) rotate(0) translate(4 1150)">
<title>%3</title>
<polygon fill="white" stroke="none" points="-4,4 -4,-1150 7395,-1150 7395,4 -4,4"/>
<!-- 2 -->
<g id="node1" class="node"><title>2</title>
<polygon fill="#fd0d00" stroke="#fd0d00" points="5414.25,-880 4661.75,-880 4661.75,-828 5414.25,-828 5414.25,-880"/>
<text text-anchor="middle" x="5038" y="-868" font-family="Arial" font-size="10.00" fill="#ffffff">message_filters::Signal1&lt;sensor_msgs::LaserScan_&lt;std::allocator&lt;void&gt; &gt; &gt;::call(ros::MessageEvent&lt;sensor_msgs::LaserScan_&lt;std::allocator&lt;void&gt; &gt; const&gt; const&amp;)</text>
<text text-anchor="middle" x="5038" y="-857" font-family="Arial" font-size="10.00" fill="#ffffff">98.77%</text>
<text text-anchor="middle" x="5038" y="-846" font-family="Arial" font-size="10.00" fill="#ffffff">(0.02%)</text>
<text text-anchor="middle" x="5038" y="-835" font-family="Arial" font-size="10.00" fill="#ffffff">8854×</text>
</g>
<!-- 3 -->
<g id="node2" class="node"><title>3</title>
<polygon fill="#fd0e00" stroke="#fd0e00" points="5604.25,-788 4471.75,-788 4471.75,-736 5604.25,-736 5604.25,-788"/>
<text text-anchor="middle" x="5038" y="-776" font-family="Arial" font-size="10.00" fill="#ffffff">message_filters::CallbackHelper1T&lt;boost::shared_ptr&lt;sensor_msgs::LaserScan_&lt;std::allocator&lt;void&gt; &gt; &gt;, sensor_msgs::LaserScan_&lt;std::allocator&lt;void&gt; &gt; &gt;::call(ros::MessageEvent&lt;sensor_msgs::LaserScan_&lt;std::allocator&lt;void&gt; &gt; const&gt; const&amp;, bool)</text>
<text text-anchor="middle" x="5038" y="-765" font-family="Arial" font-size="10.00" fill="#ffffff">98.61%</text>
<text text-anchor="middle" x="5038" y="-754" font-family="Arial" font-size="10.00" fill="#ffffff">(0.00%)</text>
<text text-anchor="middle" x="5038" y="-743" font-family="Arial" font-size="10.00" fill="#ffffff">4454×</text>
</g>
<!-- 2&#45;&gt;3 -->
<g id="edge1" class="edge"><title>2&#45;&gt;3</title>
<path fill="none" stroke="#fd0e00" stroke-width="3.94" d="M5038,-827.93C5038,-818.743 5038,-808.166 5038,-798.253"/>
<polygon fill="#fd0e00" stroke="#fd0e00" stroke-width="3.94" points="5041.47,-798.148 5038,-788.248 5034.54,-798.148 5041.47,-798.148"/>
<text text-anchor="middle" x="5055" y="-811" font-family="Arial" font-size="10.00" fill="#fd0e00">98.61%</text>
<text text-anchor="middle" x="5055" y="-800" font-family="Arial" font-size="10.00" fill="#fd0e00">4454×</text>
</g>
<!-- 4 -->
<g id="node3" class="node"><title>4</title>
<polygon fill="#fd0e00" stroke="#fd0e00" points="6291,-696 3785,-696 3785,-644 6291,-644 6291,-696"/>
<text text-anchor="middle" x="5038" y="-684" font-family="Arial" font-size="10.00" fill="#ffffff">boost::detail::function::void_function_obj_invoker1&lt;boost::_bi::bind_t&lt;void, boost::_mfi::mf1&lt;void, TopicWithTransform&lt;sensor_msgs::LaserScan_&lt;std::allocator&lt;void&gt; &gt; &gt;, boost::shared_ptr&lt;sensor_msgs::LaserScan_&lt;std::allocator&lt;void&gt; &gt; &gt; &gt;, boost::_bi::list2&lt;boost::_bi::value&lt;TopicWithTransform&lt;sensor_msgs::LaserScan_&lt;std::allocator&lt;void&gt; &gt; &gt;*&gt;, boost::arg&lt;1&gt; &gt; &gt;, void, boost::shared_ptr&lt;sensor_msgs::LaserScan_&lt;std::allocator&lt;void&gt; &gt; &gt; &gt;::invoke(boost::detail::function::function_buffer&amp;, boost::shared_ptr&lt;sensor_msgs::LaserScan_&lt;std::allocator&lt;void&gt; &gt; &gt;)</text>
<text text-anchor="middle" x="5038" y="-673" font-family="Arial" font-size="10.00" fill="#ffffff">98.60%</text>
<text text-anchor="middle" x="5038" y="-662" font-family="Arial" font-size="10.00" fill="#ffffff">(0.00%)</text>
<text text-anchor="middle" x="5038" y="-651" font-family="Arial" font-size="10.00" fill="#ffffff">4441×</text>
</g>
<!-- 3&#45;&gt;4 -->
<g id="edge2" class="edge"><title>3&#45;&gt;4</title>
<path fill="none" stroke="#fd0e00" stroke-width="3.94" d="M5038,-735.93C5038,-726.743 5038,-716.166 5038,-706.253"/>
<polygon fill="#fd0e00" stroke="#fd0e00" stroke-width="3.94" points="5041.47,-706.148 5038,-696.248 5034.54,-706.148 5041.47,-706.148"/>
<text text-anchor="middle" x="5055" y="-719" font-family="Arial" font-size="10.00" fill="#fd0e00">98.60%</text>
<text text-anchor="middle" x="5055" y="-708" font-family="Arial" font-size="10.00" fill="#fd0e00">4441×</text>
</g>
<!-- 5 -->
<g id="node4" class="node"><title>5</title>
<polygon fill="#fd0e00" stroke="#fd0e00" points="5409.25,-604 4666.75,-604 4666.75,-552 5409.25,-552 5409.25,-604"/>
<text text-anchor="middle" x="5038" y="-592" font-family="Arial" font-size="10.00" fill="#ffffff">TopicWithTransform&lt;sensor_msgs::LaserScan_&lt;std::allocator&lt;void&gt; &gt; &gt;::transformed_msg_cb(boost::shared_ptr&lt;sensor_msgs::LaserScan_&lt;std::allocator&lt;void&gt; &gt; &gt;)</text>
<text text-anchor="middle" x="5038" y="-581" font-family="Arial" font-size="10.00" fill="#ffffff">98.60%</text>
<text text-anchor="middle" x="5038" y="-570" font-family="Arial" font-size="10.00" fill="#ffffff">(0.03%)</text>
<text text-anchor="middle" x="5038" y="-559" font-family="Arial" font-size="10.00" fill="#ffffff">4431×</text>
</g>
<!-- 4&#45;&gt;5 -->
<g id="edge3" class="edge"><title>4&#45;&gt;5</title>
<path fill="none" stroke="#fd0e00" stroke-width="3.94" d="M5038,-643.93C5038,-634.743 5038,-624.166 5038,-614.253"/>
<polygon fill="#fd0e00" stroke="#fd0e00" stroke-width="3.94" points="5041.47,-614.148 5038,-604.248 5034.54,-614.148 5041.47,-614.148"/>
<text text-anchor="middle" x="5055" y="-627" font-family="Arial" font-size="10.00" fill="#fd0e00">98.60%</text>
<text text-anchor="middle" x="5055" y="-616" font-family="Arial" font-size="10.00" fill="#fd0e00">4431×</text>
</g>
<!-- 6 -->
<g id="node5" class="node"><title>6</title>
<polygon fill="#fd0f00" stroke="#fd0f00" points="5369,-512 4707,-512 4707,-460 5369,-460 5369,-512"/>
<text text-anchor="middle" x="5038" y="-500" font-family="Arial" font-size="10.00" fill="#ffffff">LaserScanObserver::handle_transformed_msg(boost::shared_ptr&lt;sensor_msgs::LaserScan_&lt;std::allocator&lt;void&gt; &gt; &gt;, tf::StampedTransform const&amp;)</text>
<text text-anchor="middle" x="5038" y="-489" font-family="Arial" font-size="10.00" fill="#ffffff">98.57%</text>
<text text-anchor="middle" x="5038" y="-478" font-family="Arial" font-size="10.00" fill="#ffffff">(0.10%)</text>
<text text-anchor="middle" x="5038" y="-467" font-family="Arial" font-size="10.00" fill="#ffffff">4459×</text>
</g>
<!-- 5&#45;&gt;6 -->
<g id="edge4" class="edge"><title>5&#45;&gt;6</title>
<path fill="none" stroke="#fd0f00" stroke-width="3.94" d="M5038,-551.93C5038,-542.743 5038,-532.166 5038,-522.253"/>
<polygon fill="#fd0f00" stroke="#fd0f00" stroke-width="3.94" points="5041.47,-522.148 5038,-512.248 5034.54,-522.148 5041.47,-522.148"/>
<text text-anchor="middle" x="5055" y="-535" font-family="Arial" font-size="10.00" fill="#fd0f00">98.57%</text>
<text text-anchor="middle" x="5055" y="-524" font-family="Arial" font-size="10.00" fill="#fd0f00">4459×</text>
</g>
<!-- 7 -->
<g id="node6" class="node"><title>7</title>
<polygon fill="#fc1501" stroke="#fc1501" points="5185,-420 4891,-420 4891,-368 5185,-368 5185,-420"/>
<text text-anchor="middle" x="5038" y="-408" font-family="Arial" font-size="10.00" fill="#ffffff">TinySlamFascade::handle_laser_scan(TransformedLaserScan&amp;)</text>
<text text-anchor="middle" x="5038" y="-397" font-family="Arial" font-size="10.00" fill="#ffffff">97.93%</text>
<text text-anchor="middle" x="5038" y="-386" font-family="Arial" font-size="10.00" fill="#ffffff">(0.00%)</text>
<text text-anchor="middle" x="5038" y="-375" font-family="Arial" font-size="10.00" fill="#ffffff">4469×</text>
</g>
<!-- 6&#45;&gt;7 -->
<g id="edge5" class="edge"><title>6&#45;&gt;7</title>
<path fill="none" stroke="#fc1501" stroke-width="3.92" d="M5038,-459.93C5038,-450.743 5038,-440.166 5038,-430.253"/>
<polygon fill="#fc1501" stroke="#fc1501" stroke-width="3.92" points="5041.47,-430.148 5038,-420.248 5034.54,-430.148 5041.47,-430.148"/>
<text text-anchor="middle" x="5055" y="-443" font-family="Arial" font-size="10.00" fill="#fc1501">97.93%</text>
<text text-anchor="middle" x="5055" y="-432" font-family="Arial" font-size="10.00" fill="#fc1501">4469×</text>
</g>
<!-- 8 -->
<g id="node7" class="node"><title>8</title>
<polygon fill="#fc1501" stroke="#fc1501" points="5168.25,-328 4907.75,-328 4907.75,-276 5168.25,-276 5168.25,-328"/>
<text text-anchor="middle" x="5038" y="-316" font-family="Arial" font-size="10.00" fill="#ffffff">TinyWorld::handle_observation(TransformedLaserScan&amp;)</text>
<text text-anchor="middle" x="5038" y="-305" font-family="Arial" font-size="10.00" fill="#ffffff">97.93%</text>
<text text-anchor="middle" x="5038" y="-294" font-family="Arial" font-size="10.00" fill="#ffffff">(0.00%)</text>
<text text-anchor="middle" x="5038" y="-283" font-family="Arial" font-size="10.00" fill="#ffffff">4453×</text>
</g>
<!-- 7&#45;&gt;8 -->
<g id="edge6" class="edge"><title>7&#45;&gt;8</title>
<path fill="none" stroke="#fc1501" stroke-width="3.92" d="M5038,-367.93C5038,-358.743 5038,-348.166 5038,-338.253"/>
<polygon fill="#fc1501" stroke="#fc1501" stroke-width="3.92" points="5041.47,-338.148 5038,-328.248 5034.54,-338.148 5041.47,-338.148"/>
<text text-anchor="middle" x="5055" y="-351" font-family="Arial" font-size="10.00" fill="#fc1501">97.93%</text>
<text text-anchor="middle" x="5055" y="-340" font-family="Arial" font-size="10.00" fill="#fc1501">4453×</text>
</g>
<!-- 9 -->
<g id="node8" class="node"><title>9</title>
<polygon fill="#e98803" stroke="#e98803" points="4705.25,-236 4148.75,-236 4148.75,-184 4705.25,-184 4705.25,-236"/>
<text text-anchor="middle" x="4427" y="-224" font-family="Arial" font-size="10.00" fill="#ffffff">MonteCarloScanMatcher::process_scan(RobotState const&amp;, TransformedLaserScan const&amp;, GridMap const&amp;, RobotState&amp;)</text>
<text text-anchor="middle" x="4427" y="-213" font-family="Arial" font-size="10.00" fill="#ffffff">85.56%</text>
<text text-anchor="middle" x="4427" y="-202" font-family="Arial" font-size="10.00" fill="#ffffff">(0.02%)</text>
<text text-anchor="middle" x="4427" y="-191" font-family="Arial" font-size="10.00" fill="#ffffff">4446×</text>
</g>
<!-- 8&#45;&gt;9 -->
<g id="edge7" class="edge"><title>8&#45;&gt;9</title>
<path fill="none" stroke="#e98803" stroke-width="3.42" d="M4907.67,-281.803C4819.82,-268.863 4702.78,-251.622 4606.19,-237.394"/>
<polygon fill="#e98803" stroke="#e98803" stroke-width="3.42" points="4606.47,-234.182 4596.9,-236.027 4605.54,-240.553 4606.47,-234.182"/>
<text text-anchor="middle" x="4823" y="-259" font-family="Arial" font-size="10.00" fill="#e98803">85.56%</text>
<text text-anchor="middle" x="4823" y="-248" font-family="Arial" font-size="10.00" fill="#e98803">4446×</text>
</g>
<!-- 19 -->
<g id="node9" class="node"><title>19</title>
<polygon fill="#0d4783" stroke="#0d4783" points="6480,-236 6172,-236 6172,-184 6480,-184 6480,-236"/>
<text text-anchor="middle" x="6326" y="-224" font-family="Arial" font-size="10.00" fill="#ffffff">LaserScanGridWorld::handle_observation(TransformedLaserScan&amp;)</text>
<text text-anchor="middle" x="6326" y="-213" font-family="Arial" font-size="10.00" fill="#ffffff">12.38%</text>
<text text-anchor="middle" x="6326" y="-202" font-family="Arial" font-size="10.00" fill="#ffffff">(0.10%)</text>
<text text-anchor="middle" x="6326" y="-191" font-family="Arial" font-size="10.00" fill="#ffffff">4484×</text>
</g>
<!-- 8&#45;&gt;19 -->
<g id="edge8" class="edge"><title>8&#45;&gt;19</title>
<path fill="none" stroke="#0d4783" stroke-width="0.5" d="M5168.29,-291.896C5406.4,-275.258 5910.94,-240.002 6168.12,-222.032"/>
<polygon fill="#0d4783" stroke="#0d4783" stroke-width="0.5" points="6168.49,-223.235 6171.89,-221.768 6168.31,-220.791 6168.49,-223.235"/>
<text text-anchor="middle" x="5852" y="-259" font-family="Arial" font-size="10.00" fill="#0d4783">12.38%</text>
<text text-anchor="middle" x="5852" y="-248" font-family="Arial" font-size="10.00" fill="#0d4783">4484×</text>
</g>
<!-- 15 -->
<g id="node10" class="node"><title>15</title>
<polygon fill="#0c8691" stroke="#0c8691" points="1960.25,-144 -0.25,-144 -0.25,-92 1960.25,-92 1960.25,-144"/>
<text text-anchor="middle" x="980" y="-132" font-family="Arial" font-size="10.00" fill="#ffffff">std::function&lt;void (std::shared_ptr&lt;GridScanMatcherObserver&gt;)&gt;::function&lt;MonteCarloScanMatcher::process_scan(RobotState const&amp;, TransformedLaserScan const&amp;, GridMap const&amp;, RobotState&amp;)::{lambda(std::shared_ptr&lt;GridScanMatcherObserver&gt;)#1}, void&gt;(MonteCarloScanMatcher::process_scan(RobotState const&amp;, TransformedLaserScan const&amp;, GridMap const&amp;, RobotState&amp;)::{lambda(std::shared_ptr&lt;GridScanMatcherObserver&gt;)#1})</text>
<text text-anchor="middle" x="980" y="-121" font-family="Arial" font-size="10.00" fill="#ffffff">23.05%</text>
<text text-anchor="middle" x="980" y="-110" font-family="Arial" font-size="10.00" fill="#ffffff">(0.03%)</text>
<text text-anchor="middle" x="980" y="-99" font-family="Arial" font-size="10.00" fill="#ffffff">4483×</text>
</g>
<!-- 9&#45;&gt;15 -->
<g id="edge9" class="edge"><title>9&#45;&gt;15</title>
<path fill="none" stroke="#0c8691" stroke-width="0.92" d="M4148.46,-207.392C3729.03,-204.365 2910.33,-196.104 2215,-175 1966.9,-167.47 1690.93,-155.315 1462.89,-144.251"/>
<polygon fill="#0c8691" stroke="#0c8691" stroke-width="0.92" points="1462.73,-142.561 1457.85,-144.006 1462.57,-145.917 1462.73,-142.561"/>
<text text-anchor="middle" x="2232" y="-167" font-family="Arial" font-size="10.00" fill="#0c8691">23.05%</text>
<text text-anchor="middle" x="2232" y="-156" font-family="Arial" font-size="10.00" fill="#0c8691">4483×</text>
</g>
<!-- 16 -->
<g id="node11" class="node"><title>16</title>
<polygon fill="#0c8591" stroke="#0c8591" points="2142.25,-144 1969.75,-144 1969.75,-92 2142.25,-92 2142.25,-144"/>
<text text-anchor="middle" x="2056" y="-132" font-family="Arial" font-size="10.00" fill="#ffffff">GridMap::GridMap(GridMap const&amp;)</text>
<text text-anchor="middle" x="2056" y="-121" font-family="Arial" font-size="10.00" fill="#ffffff">22.85%</text>
<text text-anchor="middle" x="2056" y="-110" font-family="Arial" font-size="10.00" fill="#ffffff">(0.00%)</text>
<text text-anchor="middle" x="2056" y="-99" font-family="Arial" font-size="10.00" fill="#ffffff">4466×</text>
</g>
<!-- 9&#45;&gt;16 -->
<g id="edge10" class="edge"><title>9&#45;&gt;16</title>
<path fill="none" stroke="#0c8591" stroke-width="0.91" d="M4148.62,-209.434C3629.98,-208.859 2533.86,-200.767 2147.39,-144.01"/>
<polygon fill="#0c8591" stroke="#0c8591" stroke-width="0.91" points="2147.59,-142.342 2142.6,-143.298 2147.1,-145.665 2147.59,-142.342"/>
<text text-anchor="middle" x="2491" y="-167" font-family="Arial" font-size="10.00" fill="#0c8591">22.85%</text>
<text text-anchor="middle" x="2491" y="-156" font-family="Arial" font-size="10.00" fill="#0c8591">4466×</text>
</g>
<!-- 17 -->
<g id="node12" class="node"><title>17</title>
<polygon fill="#0c5f88" stroke="#0c5f88" points="3024,-144 2152,-144 2152,-92 3024,-92 3024,-144"/>
<text text-anchor="middle" x="2588" y="-132" font-family="Arial" font-size="10.00" fill="#ffffff">MonteCarloScanMatcher::process_scan(RobotState const&amp;, TransformedLaserScan const&amp;, GridMap const&amp;, RobotState&amp;)::{lambda(std::shared_ptr&lt;GridScanMatcherObserver&gt;)#1}::~shared_ptr()</text>
<text text-anchor="middle" x="2588" y="-121" font-family="Arial" font-size="10.00" fill="#ffffff">16.63%</text>
<text text-anchor="middle" x="2588" y="-110" font-family="Arial" font-size="10.00" fill="#ffffff">(3.36%)</text>
<text text-anchor="middle" x="2588" y="-99" font-family="Arial" font-size="10.00" fill="#ffffff">4486×</text>
</g>
<!-- 9&#45;&gt;17 -->
<g id="edge11" class="edge"><title>9&#45;&gt;17</title>
<path fill="none" stroke="#0c5f88" stroke-width="0.67" d="M4148.45,-196.884C3866.27,-184.413 3417.24,-164.029 3029,-144 3028.8,-143.99 3028.59,-143.979 3028.39,-143.969"/>
<polygon fill="#0c5f88" stroke="#0c5f88" stroke-width="0.67" points="3028.28,-142.526 3024.11,-143.747 3028.13,-145.392 3028.28,-142.526"/>
<text text-anchor="middle" x="3660" y="-167" font-family="Arial" font-size="10.00" fill="#0c5f88">16.63%</text>
<text text-anchor="middle" x="3660" y="-156" font-family="Arial" font-size="10.00" fill="#0c5f88">4486×</text>
</g>
<!-- 18 -->
<g id="node13" class="node"><title>18</title>
<polygon fill="#0c5d88" stroke="#0c5d88" points="5280.25,-144 3033.75,-144 3033.75,-92 5280.25,-92 5280.25,-144"/>
<text text-anchor="middle" x="4157" y="-132" font-family="Arial" font-size="10.00" fill="#ffffff">std::_Function_base::_Base_manager&lt;MonteCarloScanMatcher::process_scan(RobotState const&amp;, TransformedLaserScan const&amp;, GridMap const&amp;, RobotState&amp;)::{lambda(std::shared_ptr&lt;GridScanMatcherObserver&gt;)#1}&gt;::_M_manager(std::_Any_data&amp;, std::_Function_base::_Base_manager&lt;MonteCarloScanMatcher::process_scan(RobotState const&amp;, TransformedLaserScan const&amp;, GridMap const&amp;, RobotState&amp;)::{lambda(std::shared_ptr&lt;GridScanMatcherObserver&gt;)#1}&gt; const&amp;, std::_Manager_operation)</text>
<text text-anchor="middle" x="4157" y="-121" font-family="Arial" font-size="10.00" fill="#ffffff">16.29%</text>
<text text-anchor="middle" x="4157" y="-110" font-family="Arial" font-size="10.00" fill="#ffffff">(3.02%)</text>
<text text-anchor="middle" x="4157" y="-99" font-family="Arial" font-size="10.00" fill="#ffffff">4487×</text>
</g>
<!-- 9&#45;&gt;18 -->
<g id="edge12" class="edge"><title>9&#45;&gt;18</title>
<path fill="none" stroke="#0c5d88" stroke-width="0.65" d="M4351.79,-183.93C4315.81,-171.936 4272.73,-157.575 4236.24,-145.412"/>
<polygon fill="#0c5d88" stroke="#0c5d88" stroke-width="0.65" points="4236.51,-144.028 4232.27,-144.092 4235.63,-146.685 4236.51,-144.028"/>
<text text-anchor="middle" x="4342" y="-167" font-family="Arial" font-size="10.00" fill="#0c5d88">16.29%</text>
<text text-anchor="middle" x="4342" y="-156" font-family="Arial" font-size="10.00" fill="#0c5d88">4487×</text>
</g>
<!-- 21 -->
<g id="node14" class="node"><title>21</title>
<polygon fill="#0d2379" stroke="#0d2379" points="5842,-144 5290,-144 5290,-92 5842,-92 5842,-144"/>
<text text-anchor="middle" x="5566" y="-132" font-family="Arial" font-size="10.00" fill="#ffffff">TinyScanCostEstimator::estimate_scan_cost(RobotState const&amp;, TransformedLaserScan const&amp;, GridMap const&amp;, double)</text>
<text text-anchor="middle" x="5566" y="-121" font-family="Arial" font-size="10.00" fill="#ffffff">5.15%</text>
<text text-anchor="middle" x="5566" y="-110" font-family="Arial" font-size="10.00" fill="#ffffff">(4.78%)</text>
<text text-anchor="middle" x="5566" y="-99" font-family="Arial" font-size="10.00" fill="#ffffff">98606×</text>
</g>
<!-- 9&#45;&gt;21 -->
<g id="edge13" class="edge"><title>9&#45;&gt;21</title>
<path fill="none" stroke="#0d2379" stroke-width="0.5" d="M4705.29,-188.846C4873.22,-176.453 5091.45,-159.94 5285,-144 5285.4,-143.967 5285.79,-143.935 5286.19,-143.902"/>
<polygon fill="#0d2379" stroke="#0d2379" stroke-width="0.5" points="5286.39,-145.115 5289.77,-143.606 5286.18,-142.673 5286.39,-145.115"/>
<text text-anchor="middle" x="5185.5" y="-167" font-family="Arial" font-size="10.00" fill="#0d2379">5.15%</text>
<text text-anchor="middle" x="5185.5" y="-156" font-family="Arial" font-size="10.00" fill="#0d2379">98606×</text>
</g>
<!-- 24 -->
<g id="node15" class="node"><title>24</title>
<polygon fill="#0d1074" stroke="#0d1074" points="6387,-144 5851,-144 5851,-92 6387,-92 6387,-144"/>
<text text-anchor="middle" x="6119" y="-132" font-family="Arial" font-size="10.00" fill="#ffffff">std::vector&lt;ScanPoint, std::allocator&lt;ScanPoint&gt; &gt;::vector(std::vector&lt;ScanPoint, std::allocator&lt;ScanPoint&gt; &gt; const&amp;)</text>
<text text-anchor="middle" x="6119" y="-121" font-family="Arial" font-size="10.00" fill="#ffffff">0.88%</text>
<text text-anchor="middle" x="6119" y="-110" font-family="Arial" font-size="10.00" fill="#ffffff">(0.88%)</text>
<text text-anchor="middle" x="6119" y="-99" font-family="Arial" font-size="10.00" fill="#ffffff">207256×</text>
</g>
<!-- 9&#45;&gt;24 -->
<g id="edge14" class="edge"><title>9&#45;&gt;24</title>
<path fill="none" stroke="#0d1074" stroke-width="0.5" d="M4705.43,-200.234C4991.9,-190.28 5450.95,-171.735 5847,-144 5847.16,-143.989 5847.33,-143.977 5847.49,-143.966"/>
<polygon fill="#0d1074" stroke="#0d1074" stroke-width="0.5" points="5847.51,-145.193 5850.91,-143.724 5847.34,-142.749 5847.51,-145.193"/>
<text text-anchor="middle" x="5712" y="-167" font-family="Arial" font-size="10.00" fill="#0d1074">0.86%</text>
<text text-anchor="middle" x="5712" y="-156" font-family="Arial" font-size="10.00" fill="#0d1074">202771×</text>
</g>
<!-- 26 -->
<g id="node16" class="node"><title>26</title>
<polygon fill="#0d1074" stroke="#0d1074" points="6614,-144 6396,-144 6396,-92 6614,-92 6614,-144"/>
<text text-anchor="middle" x="6505" y="-132" font-family="Arial" font-size="10.00" fill="#ffffff">TinyScanMatcher::sample_pose(RobotState&amp;)</text>
<text text-anchor="middle" x="6505" y="-121" font-family="Arial" font-size="10.00" fill="#ffffff">0.70%</text>
<text text-anchor="middle" x="6505" y="-110" font-family="Arial" font-size="10.00" fill="#ffffff">(0.41%)</text>
<text text-anchor="middle" x="6505" y="-99" font-family="Arial" font-size="10.00" fill="#ffffff">94113×</text>
</g>
<!-- 9&#45;&gt;26 -->
<g id="edge15" class="edge"><title>9&#45;&gt;26</title>
<path fill="none" stroke="#0d1074" stroke-width="0.5" d="M4705.39,-203.443C4969.83,-197.765 5378.56,-187.949 5733,-175 6026.02,-164.295 6101.35,-182.699 6392,-144 6392.16,-143.978 6392.32,-143.957 6392.49,-143.935"/>
<polygon fill="#0d1074" stroke="#0d1074" stroke-width="0.5" points="6392.61,-145.155 6395.9,-143.461 6392.27,-142.728 6392.61,-145.155"/>
<text text-anchor="middle" x="6326.5" y="-167" font-family="Arial" font-size="10.00" fill="#0d1074">0.70%</text>
<text text-anchor="middle" x="6326.5" y="-156" font-family="Arial" font-size="10.00" fill="#0d1074">94113×</text>
</g>
<!-- 20 -->
<g id="node22" class="node"><title>20</title>
<polygon fill="#0d4683" stroke="#0d4683" points="7016.25,-144 6623.75,-144 6623.75,-92 7016.25,-92 7016.25,-144"/>
<text text-anchor="middle" x="6820" y="-132" font-family="Arial" font-size="10.00" fill="#ffffff">TinyWorld::handle_scan_point(GridMap&amp;, double, double, double, double, bool, double)</text>
<text text-anchor="middle" x="6820" y="-121" font-family="Arial" font-size="10.00" fill="#ffffff">12.26%</text>
<text text-anchor="middle" x="6820" y="-110" font-family="Arial" font-size="10.00" fill="#ffffff">(6.71%)</text>
<text text-anchor="middle" x="6820" y="-99" font-family="Arial" font-size="10.00" fill="#ffffff">4019365×</text>
</g>
<!-- 19&#45;&gt;20 -->
<g id="edge22" class="edge"><title>19&#45;&gt;20</title>
<path fill="none" stroke="#0d4683" stroke-width="0.5" d="M6480.13,-185.266C6500.29,-181.94 6520.65,-178.47 6540,-175 6591.46,-165.769 6648.05,-154.639 6696.8,-144.742"/>
<polygon fill="#0d4683" stroke="#0d4683" stroke-width="0.5" points="6697.11,-145.929 6700.29,-144.031 6696.62,-143.528 6697.11,-145.929"/>
<text text-anchor="middle" x="6676.5" y="-167" font-family="Arial" font-size="10.00" fill="#0d4683">12.26%</text>
<text text-anchor="middle" x="6676.5" y="-156" font-family="Arial" font-size="10.00" fill="#0d4683">4019365×</text>
</g>
<!-- 11 -->
<g id="node19" class="node"><title>11</title>
<polygon fill="#0ab024" stroke="#0ab024" points="2292.25,-52 487.75,-52 487.75,-0 2292.25,-0 2292.25,-52"/>
<text text-anchor="middle" x="1390" y="-40" font-family="Arial" font-size="10.00" fill="#ffffff">std::vector&lt;std::vector&lt;std::shared_ptr&lt;GridCell&gt;, std::allocator&lt;std::shared_ptr&lt;GridCell&gt; &gt; &gt;, std::allocator&lt;std::vector&lt;std::shared_ptr&lt;GridCell&gt;, std::allocator&lt;std::shared_ptr&lt;GridCell&gt; &gt; &gt; &gt; &gt;::vector(std::vector&lt;std::vector&lt;std::shared_ptr&lt;GridCell&gt;, std::allocator&lt;std::shared_ptr&lt;GridCell&gt; &gt; &gt;, std::allocator&lt;std::vector&lt;std::shared_ptr&lt;GridCell&gt;, std::allocator&lt;std::shared_ptr&lt;GridCell&gt; &gt; &gt; &gt; &gt; const&amp;)</text>
<text text-anchor="middle" x="1390" y="-29" font-family="Arial" font-size="10.00" fill="#ffffff">46.08%</text>
<text text-anchor="middle" x="1390" y="-18" font-family="Arial" font-size="10.00" fill="#ffffff">(46.08%)</text>
<text text-anchor="middle" x="1390" y="-7" font-family="Arial" font-size="10.00" fill="#ffffff">8991×</text>
</g>
<!-- 15&#45;&gt;11 -->
<g id="edge18" class="edge"><title>15&#45;&gt;11</title>
<path fill="none" stroke="#0c8691" stroke-width="0.92" d="M1093.94,-91.9898C1149.03,-79.8967 1215.13,-65.3863 1270.89,-53.1472"/>
<polygon fill="#0c8691" stroke="#0c8691" stroke-width="0.92" points="1271.58,-54.7155 1275.9,-52.0453 1270.86,-51.4336 1271.58,-54.7155"/>
<text text-anchor="middle" x="1251" y="-75" font-family="Arial" font-size="10.00" fill="#0c8691">23.00%</text>
<text text-anchor="middle" x="1251" y="-64" font-family="Arial" font-size="10.00" fill="#0c8691">4487×</text>
</g>
<!-- 16&#45;&gt;11 -->
<g id="edge19" class="edge"><title>16&#45;&gt;11</title>
<path fill="none" stroke="#0c8591" stroke-width="0.91" d="M1969.41,-93.0746C1967.59,-92.701 1965.79,-92.3421 1964,-92 1876.63,-75.2834 1780.9,-62.3476 1693.08,-52.5795"/>
<polygon fill="#0c8591" stroke="#0c8591" stroke-width="0.91" points="1693.07,-50.8875 1688.11,-52.0289 1692.7,-54.2271 1693.07,-50.8875"/>
<text text-anchor="middle" x="1920" y="-75" font-family="Arial" font-size="10.00" fill="#0c8591">22.85%</text>
<text text-anchor="middle" x="1920" y="-64" font-family="Arial" font-size="10.00" fill="#0c8591">4459×</text>
</g>
<!-- 14 -->
<g id="node21" class="node"><title>14</title>
<polygon fill="#0c968c" stroke="#0c968c" points="3342.25,-52 3027.75,-52 3027.75,-0 3342.25,-0 3342.25,-52"/>
<text text-anchor="middle" x="3185" y="-40" font-family="Arial" font-size="10.00" fill="#ffffff">std::_Sp_counted_base&lt;(__gnu_cxx::_Lock_policy)2&gt;::_M_release()</text>
<text text-anchor="middle" x="3185" y="-29" font-family="Arial" font-size="10.00" fill="#ffffff">26.74%</text>
<text text-anchor="middle" x="3185" y="-18" font-family="Arial" font-size="10.00" fill="#ffffff">(26.74%)</text>
<text text-anchor="middle" x="3185" y="-7" font-family="Arial" font-size="10.00" fill="#ffffff">1353021357×</text>
</g>
<!-- 17&#45;&gt;14 -->
<g id="edge20" class="edge"><title>17&#45;&gt;14</title>
<path fill="none" stroke="#0d4c84" stroke-width="0.53" d="M2753.9,-91.9898C2838.14,-79.2911 2940.05,-63.927 3023.64,-51.3262"/>
<polygon fill="#0d4c84" stroke="#0d4c84" stroke-width="0.53" points="3024.23,-52.5109 3027.6,-50.7283 3023.85,-50.0191 3024.23,-52.5109"/>
<text text-anchor="middle" x="2985" y="-75" font-family="Arial" font-size="10.00" fill="#0d4c84">13.26%</text>
<text text-anchor="middle" x="2985" y="-64" font-family="Arial" font-size="10.00" fill="#0d4c84">671111194×</text>
</g>
<!-- 18&#45;&gt;14 -->
<g id="edge21" class="edge"><title>18&#45;&gt;14</title>
<path fill="none" stroke="#0d4c84" stroke-width="0.53" d="M3886.89,-91.9898C3713.15,-75.9031 3493.22,-55.5389 3346.28,-41.9337"/>
<polygon fill="#0d4c84" stroke="#0d4c84" stroke-width="0.53" points="3346.09,-40.6507 3342.39,-41.5734 3345.86,-43.16 3346.09,-40.6507"/>
<text text-anchor="middle" x="3814" y="-75" font-family="Arial" font-size="10.00" fill="#0d4c84">13.26%</text>
<text text-anchor="middle" x="3814" y="-64" font-family="Arial" font-size="10.00" fill="#0d4c84">671119438×</text>
</g>
<!-- 10 -->
<g id="node17" class="node"><title>10</title>
<polygon fill="#4dc308" stroke="#4dc308" points="5882,-1145.5 5348,-1145.5 5348,-1104.5 5882,-1104.5 5882,-1145.5"/>
<text text-anchor="middle" x="5615" y="-1133.5" font-family="Arial" font-size="10.00" fill="#ffffff">tf::MessageFilter&lt;sensor_msgs::LaserScan_&lt;std::allocator&lt;void&gt; &gt; &gt;::maxRateTimerCallback(ros::TimerEvent const&amp;)</text>
<text text-anchor="middle" x="5615" y="-1122.5" font-family="Arial" font-size="10.00" fill="#ffffff">59.23%</text>
<text text-anchor="middle" x="5615" y="-1111.5" font-family="Arial" font-size="10.00" fill="#ffffff">(0.00%)</text>
</g>
<!-- 41 -->
<g id="node18" class="node"><title>41</title>
<polygon fill="#4dc308" stroke="#4dc308" points="5812,-1064 5418,-1064 5418,-1012 5812,-1012 5812,-1064"/>
<text text-anchor="middle" x="5615" y="-1052" font-family="Arial" font-size="10.00" fill="#ffffff">tf::MessageFilter&lt;sensor_msgs::LaserScan_&lt;std::allocator&lt;void&gt; &gt; &gt;::testMessages()</text>
<text text-anchor="middle" x="5615" y="-1041" font-family="Arial" font-size="10.00" fill="#ffffff">59.17%</text>
<text text-anchor="middle" x="5615" y="-1030" font-family="Arial" font-size="10.00" fill="#ffffff">(0.00%)</text>
<text text-anchor="middle" x="5615" y="-1019" font-family="Arial" font-size="10.00" fill="#ffffff">10938×</text>
</g>
<!-- 10&#45;&gt;41 -->
<g id="edge16" class="edge"><title>10&#45;&gt;41</title>
<path fill="none" stroke="#4cc308" stroke-width="2.37" d="M5615,-1104.29C5615,-1094.66 5615,-1082.81 5615,-1071.87"/>
<polygon fill="#4cc308" stroke="#4cc308" stroke-width="2.37" points="5617.7,-1071.8 5615,-1064.1 5612.31,-1071.8 5617.7,-1071.8"/>
<text text-anchor="middle" x="5632" y="-1087" font-family="Arial" font-size="10.00" fill="#4cc308">59.14%</text>
<text text-anchor="middle" x="5632" y="-1076" font-family="Arial" font-size="10.00" fill="#4cc308">6558×</text>
</g>
<!-- 45 -->
<g id="node28" class="node"><title>45</title>
<polygon fill="#4cc308" stroke="#4cc308" points="5995.25,-972 5234.75,-972 5234.75,-920 5995.25,-920 5995.25,-972"/>
<text text-anchor="middle" x="5615" y="-960" font-family="Arial" font-size="10.00" fill="#ffffff">tf::MessageFilter&lt;sensor_msgs::LaserScan_&lt;std::allocator&lt;void&gt; &gt; &gt;::testMessage(ros::MessageEvent&lt;sensor_msgs::LaserScan_&lt;std::allocator&lt;void&gt; &gt; const&gt; const&amp;)</text>
<text text-anchor="middle" x="5615" y="-949" font-family="Arial" font-size="10.00" fill="#ffffff">59.11%</text>
<text text-anchor="middle" x="5615" y="-938" font-family="Arial" font-size="10.00" fill="#ffffff">(0.03%)</text>
<text text-anchor="middle" x="5615" y="-927" font-family="Arial" font-size="10.00" fill="#ffffff">13502×</text>
</g>
<!-- 41&#45;&gt;45 -->
<g id="edge27" class="edge"><title>41&#45;&gt;45</title>
<path fill="none" stroke="#4cc308" stroke-width="2.36" d="M5615,-1011.93C5615,-1002.07 5615,-990.6 5615,-980.073"/>
<polygon fill="#4cc308" stroke="#4cc308" stroke-width="2.36" points="5617.7,-979.948 5615,-972.248 5612.31,-979.948 5617.7,-979.948"/>
<text text-anchor="middle" x="5632" y="-995" font-family="Arial" font-size="10.00" fill="#4cc308">59.10%</text>
<text text-anchor="middle" x="5632" y="-984" font-family="Arial" font-size="10.00" fill="#4cc308">9108×</text>
</g>
<!-- 12 -->
<g id="node20" class="node"><title>12</title>
<polygon fill="#0ba74b" stroke="#0ba74b" points="5225,-966.5 4435,-966.5 4435,-925.5 5225,-925.5 5225,-966.5"/>
<text text-anchor="middle" x="4830" y="-954.5" font-family="Arial" font-size="10.00" fill="#ffffff">ros::SubscriptionCallbackHelperT&lt;ros::MessageEvent&lt;sensor_msgs::LaserScan_&lt;std::allocator&lt;void&gt; &gt; const&gt; const&amp;, void&gt;::call(ros::SubscriptionCallbackHelperCallParams&amp;)</text>
<text text-anchor="middle" x="4830" y="-943.5" font-family="Arial" font-size="10.00" fill="#ffffff">39.70%</text>
<text text-anchor="middle" x="4830" y="-932.5" font-family="Arial" font-size="10.00" fill="#ffffff">(0.00%)</text>
</g>
<!-- 12&#45;&gt;2 -->
<g id="edge17" class="edge"><title>12&#45;&gt;2</title>
<path fill="none" stroke="#0ba74b" stroke-width="1.59" d="M4875.13,-925.471C4904.04,-912.963 4942,-896.54 4973.99,-882.696"/>
<polygon fill="#0ba74b" stroke="#0ba74b" stroke-width="1.59" points="4974.99,-884.668 4979.89,-880.142 4973.24,-880.62 4974.99,-884.668"/>
<text text-anchor="middle" x="4976" y="-903" font-family="Arial" font-size="10.00" fill="#0ba74b">39.70%</text>
<text text-anchor="middle" x="4976" y="-892" font-family="Arial" font-size="10.00" fill="#0ba74b">4402×</text>
</g>
<!-- 22 -->
<g id="node23" class="node"><title>22</title>
<polygon fill="#0d1575" stroke="#0d1575" points="6633.25,-52 6258.75,-52 6258.75,-0 6633.25,-0 6633.25,-52"/>
<text text-anchor="middle" x="6446" y="-40" font-family="Arial" font-size="10.00" fill="#ffffff">DiscreteLine2D::DiscreteLine2D(DiscretePoint2D const&amp;, DiscretePoint2D const&amp;)</text>
<text text-anchor="middle" x="6446" y="-29" font-family="Arial" font-size="10.00" fill="#ffffff">1.95%</text>
<text text-anchor="middle" x="6446" y="-18" font-family="Arial" font-size="10.00" fill="#ffffff">(1.63%)</text>
<text text-anchor="middle" x="6446" y="-7" font-family="Arial" font-size="10.00" fill="#ffffff">4019331×</text>
</g>
<!-- 20&#45;&gt;22 -->
<g id="edge23" class="edge"><title>20&#45;&gt;22</title>
<path fill="none" stroke="#0d1575" stroke-width="0.5" d="M6715.82,-91.93C6665.27,-79.765 6604.6,-65.1649 6553.6,-52.893"/>
<polygon fill="#0d1575" stroke="#0d1575" stroke-width="0.5" points="6553.63,-51.6414 6549.95,-52.0135 6553.06,-54.0234 6553.63,-51.6414"/>
<text text-anchor="middle" x="6698.5" y="-75" font-family="Arial" font-size="10.00" fill="#0d1575">1.95%</text>
<text text-anchor="middle" x="6698.5" y="-64" font-family="Arial" font-size="10.00" fill="#0d1575">4019331×</text>
</g>
<!-- 23 -->
<g id="node24" class="node"><title>23</title>
<polygon fill="#0d1375" stroke="#0d1375" points="6792.5,-52 6643.5,-52 6643.5,-0 6792.5,-0 6792.5,-52"/>
<text text-anchor="middle" x="6718" y="-40" font-family="Arial" font-size="10.00" fill="#ffffff">GridMap::resize_bound(int, int)</text>
<text text-anchor="middle" x="6718" y="-29" font-family="Arial" font-size="10.00" fill="#ffffff">1.54%</text>
<text text-anchor="middle" x="6718" y="-18" font-family="Arial" font-size="10.00" fill="#ffffff">(1.54%)</text>
<text text-anchor="middle" x="6718" y="-7" font-family="Arial" font-size="10.00" fill="#ffffff">293920408×</text>
</g>
<!-- 20&#45;&gt;23 -->
<g id="edge24" class="edge"><title>20&#45;&gt;23</title>
<path fill="none" stroke="#0d1375" stroke-width="0.5" d="M6791.59,-91.93C6778.43,-80.3248 6762.77,-66.5033 6749.28,-54.6013"/>
<polygon fill="#0d1375" stroke="#0d1375" stroke-width="0.5" points="6750.05,-53.6449 6746.61,-52.2477 6748.43,-55.482 6750.05,-53.6449"/>
<text text-anchor="middle" x="6808" y="-75" font-family="Arial" font-size="10.00" fill="#0d1375">1.54%</text>
<text text-anchor="middle" x="6808" y="-64" font-family="Arial" font-size="10.00" fill="#0d1375">293920408×</text>
</g>
<!-- 25 -->
<g id="node25" class="node"><title>25</title>
<polygon fill="#0d1074" stroke="#0d1074" points="7039.25,-52 6802.75,-52 6802.75,-0 7039.25,-0 7039.25,-52"/>
<text text-anchor="middle" x="6921" y="-40" font-family="Arial" font-size="10.00" fill="#ffffff">AvgTinyCell::set_value(Occupancy const&amp;, double)</text>
<text text-anchor="middle" x="6921" y="-29" font-family="Arial" font-size="10.00" fill="#ffffff">0.83%</text>
<text text-anchor="middle" x="6921" y="-18" font-family="Arial" font-size="10.00" fill="#ffffff">(0.83%)</text>
<text text-anchor="middle" x="6921" y="-7" font-family="Arial" font-size="10.00" fill="#ffffff">150970772×</text>
</g>
<!-- 20&#45;&gt;25 -->
<g id="edge25" class="edge"><title>20&#45;&gt;25</title>
<path fill="none" stroke="#0d1074" stroke-width="0.5" d="M6848.13,-91.93C6861.16,-80.3248 6876.67,-66.5033 6890.03,-54.6013"/>
<polygon fill="#0d1074" stroke="#0d1074" stroke-width="0.5" points="6890.87,-55.4908 6892.67,-52.2477 6889.24,-53.6616 6890.87,-55.4908"/>
<text text-anchor="middle" x="6909" y="-75" font-family="Arial" font-size="10.00" fill="#0d1074">0.81%</text>
<text text-anchor="middle" x="6909" y="-64" font-family="Arial" font-size="10.00" fill="#0d1074">146951304×</text>
</g>
<!-- 28 -->
<g id="node26" class="node"><title>28</title>
<polygon fill="#0d0f73" stroke="#0d0f73" points="7391.25,-52 7048.75,-52 7048.75,-0 7391.25,-0 7391.25,-52"/>
<text text-anchor="middle" x="7220" y="-40" font-family="Arial" font-size="10.00" fill="#ffffff">GridMap::update_cell(DiscretePoint2D const&amp;, Occupancy const&amp;, double)</text>
<text text-anchor="middle" x="7220" y="-29" font-family="Arial" font-size="10.00" fill="#ffffff">0.50%</text>
<text text-anchor="middle" x="7220" y="-18" font-family="Arial" font-size="10.00" fill="#ffffff">(0.26%)</text>
<text text-anchor="middle" x="7220" y="-7" font-family="Arial" font-size="10.00" fill="#ffffff">4019458×</text>
</g>
<!-- 20&#45;&gt;28 -->
<g id="edge26" class="edge"><title>20&#45;&gt;28</title>
<path fill="none" stroke="#0d0f73" stroke-width="0.5" d="M6931.16,-91.9898C6985.34,-79.7993 7050.43,-65.1526 7105.1,-52.8521"/>
<polygon fill="#0d0f73" stroke="#0d0f73" stroke-width="0.5" points="7105.54,-54.0088 7108.69,-52.0453 7105,-51.6186 7105.54,-54.0088"/>
<text text-anchor="middle" x="7088.5" y="-75" font-family="Arial" font-size="10.00" fill="#0d0f73">0.50%</text>
<text text-anchor="middle" x="7088.5" y="-64" font-family="Arial" font-size="10.00" fill="#0d0f73">4019458×</text>
</g>
<!-- 27 -->
<g id="node27" class="node"><title>27</title>
<polygon fill="#0d0f74" stroke="#0d0f74" points="6289,-1145.5 5891,-1145.5 5891,-1104.5 6289,-1104.5 6289,-1145.5"/>
<text text-anchor="middle" x="6090" y="-1133.5" font-family="Arial" font-size="10.00" fill="#ffffff">void boost::throw_exception&lt;boost::bad_function_call&gt;(boost::bad_function_call const&amp;)</text>
<text text-anchor="middle" x="6090" y="-1122.5" font-family="Arial" font-size="10.00" fill="#ffffff">0.65%</text>
<text text-anchor="middle" x="6090" y="-1111.5" font-family="Arial" font-size="10.00" fill="#ffffff">(0.65%)</text>
</g>
<!-- 45&#45;&gt;2 -->
<g id="edge28" class="edge"><title>45&#45;&gt;2</title>
<path fill="none" stroke="#4cc308" stroke-width="2.36" d="M5454.66,-919.99C5377.36,-907.933 5284.65,-893.473 5206.34,-881.257"/>
<polygon fill="#4cc308" stroke="#4cc308" stroke-width="2.36" points="5206.34,-878.53 5198.32,-880.006 5205.51,-883.856 5206.34,-878.53"/>
<text text-anchor="middle" x="5412" y="-903" font-family="Arial" font-size="10.00" fill="#4cc308">59.08%</text>
<text text-anchor="middle" x="5412" y="-892" font-family="Arial" font-size="10.00" fill="#4cc308">4452×</text>
</g>
</g>
</svg>
