<?xml version="1.0" encoding="UTF-8" standalone="no"?>
<!DOCTYPE svg PUBLIC "-//W3C//DTD SVG 1.1//EN"
 "http://www.w3.org/Graphics/SVG/1.1/DTD/svg11.dtd">
<!-- Generated by graphviz version 2.36.0 (20140111.2315)
 -->
<!-- Title: %3 Pages: 1 -->
<svg width="5428pt" height="1246pt"
 viewBox="0.00 0.00 5428.00 1246.00" xmlns="http://www.w3.org/2000/svg" xmlns:xlink="http://www.w3.org/1999/xlink">
<g id="graph0" class="graph" transform="scale(1 1) rotate(0) translate(4 1242)">
<title>%3</title>
<polygon fill="white" stroke="none" points="-4,4 -4,-1242 5424,-1242 5424,4 -4,4"/>
<!-- 2 -->
<g id="node1" class="node"><title>2</title>
<polygon fill="#fb1e01" stroke="#fb1e01" points="4221.25,-972 3468.75,-972 3468.75,-920 4221.25,-920 4221.25,-972"/>
<text text-anchor="middle" x="3845" y="-960" font-family="Arial" font-size="10.00" fill="#ffffff">message_filters::Signal1&lt;sensor_msgs::LaserScan_&lt;std::allocator&lt;void&gt; &gt; &gt;::call(ros::MessageEvent&lt;sensor_msgs::LaserScan_&lt;std::allocator&lt;void&gt; &gt; const&gt; const&amp;)</text>
<text text-anchor="middle" x="3845" y="-949" font-family="Arial" font-size="10.00" fill="#ffffff">97.12%</text>
<text text-anchor="middle" x="3845" y="-938" font-family="Arial" font-size="10.00" fill="#ffffff">(0.00%)</text>
<text text-anchor="middle" x="3845" y="-927" font-family="Arial" font-size="10.00" fill="#ffffff">8927×</text>
</g>
<!-- 3 -->
<g id="node2" class="node"><title>3</title>
<polygon fill="#fa2301" stroke="#fa2301" points="4280.25,-880 3147.75,-880 3147.75,-828 4280.25,-828 4280.25,-880"/>
<text text-anchor="middle" x="3714" y="-868" font-family="Arial" font-size="10.00" fill="#ffffff">message_filters::CallbackHelper1T&lt;boost::shared_ptr&lt;sensor_msgs::LaserScan_&lt;std::allocator&lt;void&gt; &gt; &gt;, sensor_msgs::LaserScan_&lt;std::allocator&lt;void&gt; &gt; &gt;::call(ros::MessageEvent&lt;sensor_msgs::LaserScan_&lt;std::allocator&lt;void&gt; &gt; const&gt; const&amp;, bool)</text>
<text text-anchor="middle" x="3714" y="-857" font-family="Arial" font-size="10.00" fill="#ffffff">96.53%</text>
<text text-anchor="middle" x="3714" y="-846" font-family="Arial" font-size="10.00" fill="#ffffff">(0.15%)</text>
<text text-anchor="middle" x="3714" y="-835" font-family="Arial" font-size="10.00" fill="#ffffff">4479×</text>
</g>
<!-- 2&#45;&gt;3 -->
<g id="edge1" class="edge"><title>2&#45;&gt;3</title>
<path fill="none" stroke="#fa2301" stroke-width="3.86" d="M3808.51,-919.93C3793.17,-909.389 3775.16,-897.019 3759.01,-885.92"/>
<polygon fill="#fa2301" stroke="#fa2301" stroke-width="3.86" points="3760.77,-882.97 3750.75,-880.248 3756.88,-888.624 3760.77,-882.97"/>
<text text-anchor="middle" x="3813" y="-903" font-family="Arial" font-size="10.00" fill="#fa2301">96.53%</text>
<text text-anchor="middle" x="3813" y="-892" font-family="Arial" font-size="10.00" fill="#fa2301">4479×</text>
</g>
<!-- 30 -->
<g id="node3" class="node"><title>30</title>
<polygon fill="#0d1074" stroke="#0d1074" points="4486.25,-880 4289.75,-880 4289.75,-828 4486.25,-828 4486.25,-880"/>
<text text-anchor="middle" x="4388" y="-868" font-family="Arial" font-size="10.00" fill="#ffffff">boost::unique_lock&lt;boost::mutex&gt;::lock()</text>
<text text-anchor="middle" x="4388" y="-857" font-family="Arial" font-size="10.00" fill="#ffffff">0.73%</text>
<text text-anchor="middle" x="4388" y="-846" font-family="Arial" font-size="10.00" fill="#ffffff">(0.73%)</text>
<text text-anchor="middle" x="4388" y="-835" font-family="Arial" font-size="10.00" fill="#ffffff">41950×</text>
</g>
<!-- 2&#45;&gt;30 -->
<g id="edge2" class="edge"><title>2&#45;&gt;30</title>
<path fill="none" stroke="#0d0d73" stroke-width="0.5" d="M4039.59,-919.979C4116.04,-909.16 4204.39,-895.43 4284,-880 4284.68,-879.867 4285.37,-879.734 4286.06,-879.598"/>
<polygon fill="#0d0d73" stroke="#0d0d73" stroke-width="0.5" points="4286.32,-880.795 4289.51,-878.91 4285.84,-878.392 4286.32,-880.795"/>
<text text-anchor="middle" x="4239" y="-903" font-family="Arial" font-size="10.00" fill="#0d0d73">0.16%</text>
<text text-anchor="middle" x="4239" y="-892" font-family="Arial" font-size="10.00" fill="#0d0d73">8927×</text>
</g>
<!-- 4 -->
<g id="node4" class="node"><title>4</title>
<polygon fill="#f92701" stroke="#f92701" points="4967,-788 2461,-788 2461,-736 4967,-736 4967,-788"/>
<text text-anchor="middle" x="3714" y="-776" font-family="Arial" font-size="10.00" fill="#ffffff">boost::detail::function::void_function_obj_invoker1&lt;boost::_bi::bind_t&lt;void, boost::_mfi::mf1&lt;void, TopicWithTransform&lt;sensor_msgs::LaserScan_&lt;std::allocator&lt;void&gt; &gt; &gt;, boost::shared_ptr&lt;sensor_msgs::LaserScan_&lt;std::allocator&lt;void&gt; &gt; &gt; &gt;, boost::_bi::list2&lt;boost::_bi::value&lt;TopicWithTransform&lt;sensor_msgs::LaserScan_&lt;std::allocator&lt;void&gt; &gt; &gt;*&gt;, boost::arg&lt;1&gt; &gt; &gt;, void, boost::shared_ptr&lt;sensor_msgs::LaserScan_&lt;std::allocator&lt;void&gt; &gt; &gt; &gt;::invoke(boost::detail::function::function_buffer&amp;, boost::shared_ptr&lt;sensor_msgs::LaserScan_&lt;std::allocator&lt;void&gt; &gt; &gt;)</text>
<text text-anchor="middle" x="3714" y="-765" font-family="Arial" font-size="10.00" fill="#ffffff">96.21%</text>
<text text-anchor="middle" x="3714" y="-754" font-family="Arial" font-size="10.00" fill="#ffffff">(0.00%)</text>
<text text-anchor="middle" x="3714" y="-743" font-family="Arial" font-size="10.00" fill="#ffffff">4479×</text>
</g>
<!-- 3&#45;&gt;4 -->
<g id="edge3" class="edge"><title>3&#45;&gt;4</title>
<path fill="none" stroke="#f92701" stroke-width="3.85" d="M3714,-827.93C3714,-818.743 3714,-808.166 3714,-798.253"/>
<polygon fill="#f92701" stroke="#f92701" stroke-width="3.85" points="3717.43,-798.048 3714,-788.248 3710.57,-798.048 3717.43,-798.048"/>
<text text-anchor="middle" x="3731" y="-811" font-family="Arial" font-size="10.00" fill="#f92701">96.21%</text>
<text text-anchor="middle" x="3731" y="-800" font-family="Arial" font-size="10.00" fill="#f92701">4479×</text>
</g>
<!-- 5 -->
<g id="node5" class="node"><title>5</title>
<polygon fill="#f92701" stroke="#f92701" points="4085.25,-696 3342.75,-696 3342.75,-644 4085.25,-644 4085.25,-696"/>
<text text-anchor="middle" x="3714" y="-684" font-family="Arial" font-size="10.00" fill="#ffffff">TopicWithTransform&lt;sensor_msgs::LaserScan_&lt;std::allocator&lt;void&gt; &gt; &gt;::transformed_msg_cb(boost::shared_ptr&lt;sensor_msgs::LaserScan_&lt;std::allocator&lt;void&gt; &gt; &gt;)</text>
<text text-anchor="middle" x="3714" y="-673" font-family="Arial" font-size="10.00" fill="#ffffff">96.19%</text>
<text text-anchor="middle" x="3714" y="-662" font-family="Arial" font-size="10.00" fill="#ffffff">(0.00%)</text>
<text text-anchor="middle" x="3714" y="-651" font-family="Arial" font-size="10.00" fill="#ffffff">4478×</text>
</g>
<!-- 4&#45;&gt;5 -->
<g id="edge4" class="edge"><title>4&#45;&gt;5</title>
<path fill="none" stroke="#f92701" stroke-width="3.85" d="M3714,-735.93C3714,-726.743 3714,-716.166 3714,-706.253"/>
<polygon fill="#f92701" stroke="#f92701" stroke-width="3.85" points="3717.43,-706.048 3714,-696.248 3710.57,-706.048 3717.43,-706.048"/>
<text text-anchor="middle" x="3731" y="-719" font-family="Arial" font-size="10.00" fill="#f92701">96.19%</text>
<text text-anchor="middle" x="3731" y="-708" font-family="Arial" font-size="10.00" fill="#f92701">4478×</text>
</g>
<!-- 6 -->
<g id="node6" class="node"><title>6</title>
<polygon fill="#f92701" stroke="#f92701" points="4045,-604 3383,-604 3383,-552 4045,-552 4045,-604"/>
<text text-anchor="middle" x="3714" y="-592" font-family="Arial" font-size="10.00" fill="#ffffff">LaserScanObserver::handle_transformed_msg(boost::shared_ptr&lt;sensor_msgs::LaserScan_&lt;std::allocator&lt;void&gt; &gt; &gt;, tf::StampedTransform const&amp;)</text>
<text text-anchor="middle" x="3714" y="-581" font-family="Arial" font-size="10.00" fill="#ffffff">96.18%</text>
<text text-anchor="middle" x="3714" y="-570" font-family="Arial" font-size="10.00" fill="#ffffff">(0.59%)</text>
<text text-anchor="middle" x="3714" y="-559" font-family="Arial" font-size="10.00" fill="#ffffff">4481×</text>
</g>
<!-- 5&#45;&gt;6 -->
<g id="edge5" class="edge"><title>5&#45;&gt;6</title>
<path fill="none" stroke="#f92701" stroke-width="3.85" d="M3714,-643.93C3714,-634.743 3714,-624.166 3714,-614.253"/>
<polygon fill="#f92701" stroke="#f92701" stroke-width="3.85" points="3717.43,-614.048 3714,-604.248 3710.57,-614.048 3717.43,-614.048"/>
<text text-anchor="middle" x="3731" y="-627" font-family="Arial" font-size="10.00" fill="#f92701">96.18%</text>
<text text-anchor="middle" x="3731" y="-616" font-family="Arial" font-size="10.00" fill="#f92701">4481×</text>
</g>
<!-- 7 -->
<g id="node7" class="node"><title>7</title>
<polygon fill="#f54402" stroke="#f54402" points="3741,-512 3447,-512 3447,-460 3741,-460 3741,-512"/>
<text text-anchor="middle" x="3594" y="-500" font-family="Arial" font-size="10.00" fill="#ffffff">TinySlamFascade::handle_laser_scan(TransformedLaserScan&amp;)</text>
<text text-anchor="middle" x="3594" y="-489" font-family="Arial" font-size="10.00" fill="#ffffff">93.18%</text>
<text text-anchor="middle" x="3594" y="-478" font-family="Arial" font-size="10.00" fill="#ffffff">(0.00%)</text>
<text text-anchor="middle" x="3594" y="-467" font-family="Arial" font-size="10.00" fill="#ffffff">4480×</text>
</g>
<!-- 6&#45;&gt;7 -->
<g id="edge6" class="edge"><title>6&#45;&gt;7</title>
<path fill="none" stroke="#f54402" stroke-width="3.73" d="M3680.57,-551.93C3666.65,-541.485 3650.33,-529.245 3635.63,-518.225"/>
<polygon fill="#f54402" stroke="#f54402" stroke-width="3.73" points="3637.46,-515.352 3627.66,-512.248 3633.39,-520.784 3637.46,-515.352"/>
<text text-anchor="middle" x="3686" y="-535" font-family="Arial" font-size="10.00" fill="#f54402">93.18%</text>
<text text-anchor="middle" x="3686" y="-524" font-family="Arial" font-size="10.00" fill="#f54402">4480×</text>
</g>
<!-- 21 -->
<g id="node8" class="node"><title>21</title>
<polygon fill="#0d1676" stroke="#0d1676" points="4620.25,-328 4409.75,-328 4409.75,-276 4620.25,-276 4620.25,-328"/>
<text text-anchor="middle" x="4515" y="-316" font-family="Arial" font-size="10.00" fill="#ffffff">RvizGridViewer::show_map(GridMap const&amp;)</text>
<text text-anchor="middle" x="4515" y="-305" font-family="Arial" font-size="10.00" fill="#ffffff">2.19%</text>
<text text-anchor="middle" x="4515" y="-294" font-family="Arial" font-size="10.00" fill="#ffffff">(0.22%)</text>
<text text-anchor="middle" x="4515" y="-283" font-family="Arial" font-size="10.00" fill="#ffffff">4483×</text>
</g>
<!-- 6&#45;&gt;21 -->
<g id="edge7" class="edge"><title>6&#45;&gt;21</title>
<path fill="none" stroke="#0d1676" stroke-width="0.5" d="M3787.21,-551.958C3938.37,-500.248 4283.76,-382.1 4438.07,-329.317"/>
<polygon fill="#0d1676" stroke="#0d1676" stroke-width="0.5" points="4438.76,-330.375 4441.67,-328.083 4437.97,-328.057 4438.76,-330.375"/>
<text text-anchor="middle" x="4157" y="-443" font-family="Arial" font-size="10.00" fill="#0d1676">2.19%</text>
<text text-anchor="middle" x="4157" y="-432" font-family="Arial" font-size="10.00" fill="#0d1676">4483×</text>
</g>
<!-- 8 -->
<g id="node9" class="node"><title>8</title>
<polygon fill="#f54402" stroke="#f54402" points="3196.25,-420 2935.75,-420 2935.75,-368 3196.25,-368 3196.25,-420"/>
<text text-anchor="middle" x="3066" y="-408" font-family="Arial" font-size="10.00" fill="#ffffff">TinyWorld::handle_observation(TransformedLaserScan&amp;)</text>
<text text-anchor="middle" x="3066" y="-397" font-family="Arial" font-size="10.00" fill="#ffffff">93.18%</text>
<text text-anchor="middle" x="3066" y="-386" font-family="Arial" font-size="10.00" fill="#ffffff">(0.00%)</text>
<text text-anchor="middle" x="3066" y="-375" font-family="Arial" font-size="10.00" fill="#ffffff">4478×</text>
</g>
<!-- 7&#45;&gt;8 -->
<g id="edge8" class="edge"><title>7&#45;&gt;8</title>
<path fill="none" stroke="#f54402" stroke-width="3.73" d="M3447.27,-459.99C3371.92,-447.146 3280.58,-431.576 3206.19,-418.895"/>
<polygon fill="#f54402" stroke="#f54402" stroke-width="3.73" points="3206.4,-415.489 3196.27,-417.205 3205.26,-422.182 3206.4,-415.489"/>
<text text-anchor="middle" x="3410" y="-443" font-family="Arial" font-size="10.00" fill="#f54402">93.18%</text>
<text text-anchor="middle" x="3410" y="-432" font-family="Arial" font-size="10.00" fill="#f54402">4478×</text>
</g>
<!-- 19 -->
<g id="node25" class="node"><title>19</title>
<polygon fill="#0d1976" stroke="#0d1976" points="4623,-144 4495,-144 4495,-92 4623,-92 4623,-144"/>
<text text-anchor="middle" x="4559" y="-132" font-family="Arial" font-size="10.00" fill="#ffffff">AvgTinyCell::value() const</text>
<text text-anchor="middle" x="4559" y="-121" font-family="Arial" font-size="10.00" fill="#ffffff">2.79%</text>
<text text-anchor="middle" x="4559" y="-110" font-family="Arial" font-size="10.00" fill="#ffffff">(2.79%)</text>
<text text-anchor="middle" x="4559" y="-99" font-family="Arial" font-size="10.00" fill="#ffffff">57107182×</text>
</g>
<!-- 21&#45;&gt;19 -->
<g id="edge27" class="edge"><title>21&#45;&gt;19</title>
<path fill="none" stroke="#0d0e73" stroke-width="0.5" d="M4528.89,-275.773C4534.77,-264.014 4541.14,-249.633 4545,-236 4553.3,-206.665 4556.68,-171.834 4558.06,-147.848"/>
<polygon fill="#0d0e73" stroke="#0d0e73" stroke-width="0.5" points="4559.29,-147.655 4558.26,-144.094 4556.85,-147.522 4559.29,-147.655"/>
<text text-anchor="middle" x="4576.5" y="-213" font-family="Arial" font-size="10.00" fill="#0d0e73">0.37%</text>
<text text-anchor="middle" x="4576.5" y="-202" font-family="Arial" font-size="10.00" fill="#0d0e73">7613534×</text>
</g>
<!-- 28 -->
<g id="node28" class="node"><title>28</title>
<polygon fill="#0d1174" stroke="#0d1174" points="5420.25,-236 4611.75,-236 4611.75,-184 5420.25,-184 5420.25,-236"/>
<text text-anchor="middle" x="5016" y="-224" font-family="Arial" font-size="10.00" fill="#ffffff">std::vector&lt;std::shared_ptr&lt;GridCell&gt;, std::allocator&lt;std::shared_ptr&lt;GridCell&gt; &gt; &gt;::vector(std::vector&lt;std::shared_ptr&lt;GridCell&gt;, std::allocator&lt;std::shared_ptr&lt;GridCell&gt; &gt; &gt; const&amp;)</text>
<text text-anchor="middle" x="5016" y="-213" font-family="Arial" font-size="10.00" fill="#ffffff">0.96%</text>
<text text-anchor="middle" x="5016" y="-202" font-family="Arial" font-size="10.00" fill="#ffffff">(0.96%)</text>
<text text-anchor="middle" x="5016" y="-191" font-family="Arial" font-size="10.00" fill="#ffffff">16993×</text>
</g>
<!-- 21&#45;&gt;28 -->
<g id="edge28" class="edge"><title>21&#45;&gt;28</title>
<path fill="none" stroke="#0d1174" stroke-width="0.5" d="M4620.33,-282.078C4693.65,-268.908 4792.29,-251.187 4872.75,-236.734"/>
<polygon fill="#0d1174" stroke="#0d1174" stroke-width="0.5" points="4873.34,-237.873 4876.56,-236.048 4872.9,-235.461 4873.34,-237.873"/>
<text text-anchor="middle" x="4842.5" y="-259" font-family="Arial" font-size="10.00" fill="#0d1174">0.96%</text>
<text text-anchor="middle" x="4842.5" y="-248" font-family="Arial" font-size="10.00" fill="#0d1174">16993×</text>
</g>
<!-- 31 -->
<g id="node29" class="node"><title>31</title>
<polygon fill="#0d1074" stroke="#0d1074" points="4541.25,-236 3622.75,-236 3622.75,-184 4541.25,-184 4541.25,-236"/>
<text text-anchor="middle" x="4082" y="-224" font-family="Arial" font-size="10.00" fill="#ffffff">std::vector&lt;std::vector&lt;std::shared_ptr&lt;GridCell&gt;, std::allocator&lt;std::shared_ptr&lt;GridCell&gt; &gt; &gt;, std::allocator&lt;std::vector&lt;std::shared_ptr&lt;GridCell&gt;, std::allocator&lt;std::shared_ptr&lt;GridCell&gt; &gt; &gt; &gt; &gt;::~vector()</text>
<text text-anchor="middle" x="4082" y="-213" font-family="Arial" font-size="10.00" fill="#ffffff">0.67%</text>
<text text-anchor="middle" x="4082" y="-202" font-family="Arial" font-size="10.00" fill="#ffffff">(0.07%)</text>
<text text-anchor="middle" x="4082" y="-191" font-family="Arial" font-size="10.00" fill="#ffffff">47×</text>
</g>
<!-- 21&#45;&gt;31 -->
<g id="edge29" class="edge"><title>21&#45;&gt;31</title>
<path fill="none" stroke="#0d0f74" stroke-width="0.5" d="M4409.63,-279.099C4348.15,-266.319 4270.26,-250.13 4205.85,-236.743"/>
<polygon fill="#0d0f74" stroke="#0d0f74" stroke-width="0.5" points="4206.09,-235.54 4202.41,-236.028 4205.59,-237.939 4206.09,-235.54"/>
<text text-anchor="middle" x="4365" y="-259" font-family="Arial" font-size="10.00" fill="#0d0f74">0.64%</text>
<text text-anchor="middle" x="4365" y="-248" font-family="Arial" font-size="10.00" fill="#0d0f74">45×</text>
</g>
<!-- 10 -->
<g id="node10" class="node"><title>10</title>
<polygon fill="#67c708" stroke="#67c708" points="2259,-328 1951,-328 1951,-276 2259,-276 2259,-328"/>
<text text-anchor="middle" x="2105" y="-316" font-family="Arial" font-size="10.00" fill="#ffffff">LaserScanGridWorld::handle_observation(TransformedLaserScan&amp;)</text>
<text text-anchor="middle" x="2105" y="-305" font-family="Arial" font-size="10.00" fill="#ffffff">62.40%</text>
<text text-anchor="middle" x="2105" y="-294" font-family="Arial" font-size="10.00" fill="#ffffff">(0.37%)</text>
<text text-anchor="middle" x="2105" y="-283" font-family="Arial" font-size="10.00" fill="#ffffff">4484×</text>
</g>
<!-- 8&#45;&gt;10 -->
<g id="edge9" class="edge"><title>8&#45;&gt;10</title>
<path fill="none" stroke="#67c708" stroke-width="2.5" d="M2935.65,-380.792C2762.19,-364.547 2455.54,-335.829 2267.28,-318.198"/>
<polygon fill="#67c708" stroke="#67c708" stroke-width="2.5" points="2267.37,-315.429 2259.25,-317.445 2266.85,-320.935 2267.37,-315.429"/>
<text text-anchor="middle" x="2717" y="-351" font-family="Arial" font-size="10.00" fill="#67c708">62.40%</text>
<text text-anchor="middle" x="2717" y="-340" font-family="Arial" font-size="10.00" fill="#67c708">4484×</text>
</g>
<!-- 12 -->
<g id="node11" class="node"><title>12</title>
<polygon fill="#0c9b7a" stroke="#0c9b7a" points="3344.25,-328 2787.75,-328 2787.75,-276 3344.25,-276 3344.25,-328"/>
<text text-anchor="middle" x="3066" y="-316" font-family="Arial" font-size="10.00" fill="#ffffff">MonteCarloScanMatcher::process_scan(RobotState const&amp;, TransformedLaserScan const&amp;, GridMap const&amp;, RobotState&amp;)</text>
<text text-anchor="middle" x="3066" y="-305" font-family="Arial" font-size="10.00" fill="#ffffff">30.78%</text>
<text text-anchor="middle" x="3066" y="-294" font-family="Arial" font-size="10.00" fill="#ffffff">(0.00%)</text>
<text text-anchor="middle" x="3066" y="-283" font-family="Arial" font-size="10.00" fill="#ffffff">4476×</text>
</g>
<!-- 8&#45;&gt;12 -->
<g id="edge10" class="edge"><title>8&#45;&gt;12</title>
<path fill="none" stroke="#0c9b7a" stroke-width="1.23" d="M3066,-367.93C3066,-357.389 3066,-345.019 3066,-333.92"/>
<polygon fill="#0c9b7a" stroke="#0c9b7a" stroke-width="1.23" points="3067.93,-333.748 3066,-328.248 3064.08,-333.748 3067.93,-333.748"/>
<text text-anchor="middle" x="3083" y="-351" font-family="Arial" font-size="10.00" fill="#0c9b7a">30.78%</text>
<text text-anchor="middle" x="3083" y="-340" font-family="Arial" font-size="10.00" fill="#0c9b7a">4476×</text>
</g>
<!-- 11 -->
<g id="node14" class="node"><title>11</title>
<polygon fill="#62c708" stroke="#62c708" points="1667.25,-236 1274.75,-236 1274.75,-184 1667.25,-184 1667.25,-236"/>
<text text-anchor="middle" x="1471" y="-224" font-family="Arial" font-size="10.00" fill="#ffffff">TinyWorld::handle_scan_point(GridMap&amp;, double, double, double, double, bool, double)</text>
<text text-anchor="middle" x="1471" y="-213" font-family="Arial" font-size="10.00" fill="#ffffff">61.88%</text>
<text text-anchor="middle" x="1471" y="-202" font-family="Arial" font-size="10.00" fill="#ffffff">(32.62%)</text>
<text text-anchor="middle" x="1471" y="-191" font-family="Arial" font-size="10.00" fill="#ffffff">4019365×</text>
</g>
<!-- 10&#45;&gt;11 -->
<g id="edge13" class="edge"><title>10&#45;&gt;11</title>
<path fill="none" stroke="#62c708" stroke-width="2.48" d="M1950.72,-279.099C1861.59,-266.446 1748.92,-250.452 1655.17,-237.143"/>
<polygon fill="#62c708" stroke="#62c708" stroke-width="2.48" points="1655.52,-234.4 1647.3,-236.028 1654.74,-239.875 1655.52,-234.4"/>
<text text-anchor="middle" x="1885.5" y="-259" font-family="Arial" font-size="10.00" fill="#62c708">61.88%</text>
<text text-anchor="middle" x="1885.5" y="-248" font-family="Arial" font-size="10.00" fill="#62c708">4019365×</text>
</g>
<!-- 14 -->
<g id="node22" class="node"><title>14</title>
<polygon fill="#0c9789" stroke="#0c9789" points="3613,-236 3061,-236 3061,-184 3613,-184 3613,-236"/>
<text text-anchor="middle" x="3337" y="-224" font-family="Arial" font-size="10.00" fill="#ffffff">TinyScanCostEstimator::estimate_scan_cost(RobotState const&amp;, TransformedLaserScan const&amp;, GridMap const&amp;, double)</text>
<text text-anchor="middle" x="3337" y="-213" font-family="Arial" font-size="10.00" fill="#ffffff">27.40%</text>
<text text-anchor="middle" x="3337" y="-202" font-family="Arial" font-size="10.00" fill="#ffffff">(24.98%)</text>
<text text-anchor="middle" x="3337" y="-191" font-family="Arial" font-size="10.00" fill="#ffffff">98202×</text>
</g>
<!-- 12&#45;&gt;14 -->
<g id="edge21" class="edge"><title>12&#45;&gt;14</title>
<path fill="none" stroke="#0c9789" stroke-width="1.1" d="M3141.49,-275.93C3177.16,-264.082 3219.8,-249.924 3256.13,-237.856"/>
<polygon fill="#0c9789" stroke="#0c9789" stroke-width="1.1" points="3257.09,-239.458 3261.45,-236.092 3255.94,-236.003 3257.09,-239.458"/>
<text text-anchor="middle" x="3251" y="-259" font-family="Arial" font-size="10.00" fill="#0c9789">27.40%</text>
<text text-anchor="middle" x="3251" y="-248" font-family="Arial" font-size="10.00" fill="#0c9789">98202×</text>
</g>
<!-- 17 -->
<g id="node23" class="node"><title>17</title>
<polygon fill="#0d1b77" stroke="#0d1b77" points="3052,-236 2834,-236 2834,-184 3052,-184 3052,-236"/>
<text text-anchor="middle" x="2943" y="-224" font-family="Arial" font-size="10.00" fill="#ffffff">TinyScanMatcher::sample_pose(RobotState&amp;)</text>
<text text-anchor="middle" x="2943" y="-213" font-family="Arial" font-size="10.00" fill="#ffffff">3.38%</text>
<text text-anchor="middle" x="2943" y="-202" font-family="Arial" font-size="10.00" fill="#ffffff">(1.62%)</text>
<text text-anchor="middle" x="2943" y="-191" font-family="Arial" font-size="10.00" fill="#ffffff">93727×</text>
</g>
<!-- 12&#45;&gt;17 -->
<g id="edge22" class="edge"><title>12&#45;&gt;17</title>
<path fill="none" stroke="#0d1b77" stroke-width="0.5" d="M3031.74,-275.93C3015.88,-264.325 2996.99,-250.503 2980.72,-238.601"/>
<polygon fill="#0d1b77" stroke="#0d1b77" stroke-width="0.5" points="2981.05,-237.326 2977.51,-236.248 2979.61,-239.303 2981.05,-237.326"/>
<text text-anchor="middle" x="3036.5" y="-259" font-family="Arial" font-size="10.00" fill="#0d1b77">3.38%</text>
<text text-anchor="middle" x="3036.5" y="-248" font-family="Arial" font-size="10.00" fill="#0d1b77">93727×</text>
</g>
<!-- 9 -->
<g id="node12" class="node"><title>9</title>
<polygon fill="#9cd007" stroke="#9cd007" points="4529,-1237.5 3995,-1237.5 3995,-1196.5 4529,-1196.5 4529,-1237.5"/>
<text text-anchor="middle" x="4262" y="-1225.5" font-family="Arial" font-size="10.00" fill="#ffffff">tf::MessageFilter&lt;sensor_msgs::LaserScan_&lt;std::allocator&lt;void&gt; &gt; &gt;::maxRateTimerCallback(ros::TimerEvent const&amp;)</text>
<text text-anchor="middle" x="4262" y="-1214.5" font-family="Arial" font-size="10.00" fill="#ffffff">68.48%</text>
<text text-anchor="middle" x="4262" y="-1203.5" font-family="Arial" font-size="10.00" fill="#ffffff">(0.07%)</text>
</g>
<!-- 9&#45;&gt;30 -->
<g id="edge11" class="edge"><title>9&#45;&gt;30</title>
<path fill="none" stroke="#0d0e73" stroke-width="0.5" d="M4330.53,-1196.49C4360.08,-1183.49 4388,-1162.8 4388,-1131 4388,-1131 4388,-1131 4388,-945 4388,-924.663 4388,-901.741 4388,-884.12"/>
<polygon fill="#0d0e73" stroke="#0d0e73" stroke-width="0.5" points="4389.23,-883.716 4388,-880.216 4386.78,-883.716 4389.23,-883.716"/>
<text text-anchor="middle" x="4404.5" y="-1041" font-family="Arial" font-size="10.00" fill="#0d0e73">0.32%</text>
<text text-anchor="middle" x="4404.5" y="-1030" font-family="Arial" font-size="10.00" fill="#0d0e73">18534×</text>
</g>
<!-- 33 -->
<g id="node13" class="node"><title>33</title>
<polygon fill="#99d007" stroke="#99d007" points="4127,-1156 3733,-1156 3733,-1104 4127,-1104 4127,-1156"/>
<text text-anchor="middle" x="3930" y="-1144" font-family="Arial" font-size="10.00" fill="#ffffff">tf::MessageFilter&lt;sensor_msgs::LaserScan_&lt;std::allocator&lt;void&gt; &gt; &gt;::testMessages()</text>
<text text-anchor="middle" x="3930" y="-1133" font-family="Arial" font-size="10.00" fill="#ffffff">68.25%</text>
<text text-anchor="middle" x="3930" y="-1122" font-family="Arial" font-size="10.00" fill="#ffffff">(0.22%)</text>
<text text-anchor="middle" x="3930" y="-1111" font-family="Arial" font-size="10.00" fill="#ffffff">14683×</text>
</g>
<!-- 9&#45;&gt;33 -->
<g id="edge12" class="edge"><title>9&#45;&gt;33</title>
<path fill="none" stroke="#98cf07" stroke-width="2.72" d="M4185.83,-1196.5C4141.4,-1185.12 4084.69,-1170.6 4035.95,-1158.13"/>
<polygon fill="#98cf07" stroke="#98cf07" stroke-width="2.72" points="4036.55,-1155.32 4027.89,-1156.06 4035.12,-1160.88 4036.55,-1155.32"/>
<text text-anchor="middle" x="4163" y="-1179" font-family="Arial" font-size="10.00" fill="#98cf07">68.05%</text>
<text text-anchor="middle" x="4163" y="-1168" font-family="Arial" font-size="10.00" fill="#98cf07">10236×</text>
</g>
<!-- 54 -->
<g id="node32" class="node"><title>54</title>
<polygon fill="#94cf07" stroke="#94cf07" points="3570.25,-1064 2809.75,-1064 2809.75,-1012 3570.25,-1012 3570.25,-1064"/>
<text text-anchor="middle" x="3190" y="-1052" font-family="Arial" font-size="10.00" fill="#ffffff">tf::MessageFilter&lt;sensor_msgs::LaserScan_&lt;std::allocator&lt;void&gt; &gt; &gt;::testMessage(ros::MessageEvent&lt;sensor_msgs::LaserScan_&lt;std::allocator&lt;void&gt; &gt; const&gt; const&amp;)</text>
<text text-anchor="middle" x="3190" y="-1041" font-family="Arial" font-size="10.00" fill="#ffffff">67.61%</text>
<text text-anchor="middle" x="3190" y="-1030" font-family="Arial" font-size="10.00" fill="#ffffff">(0.00%)</text>
<text text-anchor="middle" x="3190" y="-1019" font-family="Arial" font-size="10.00" fill="#ffffff">17901×</text>
</g>
<!-- 33&#45;&gt;54 -->
<g id="edge32" class="edge"><title>33&#45;&gt;54</title>
<path fill="none" stroke="#94cf07" stroke-width="2.7" d="M3732.67,-1105C3631.37,-1092.68 3507.81,-1077.65 3404.2,-1065.05"/>
<polygon fill="#94cf07" stroke="#94cf07" stroke-width="2.7" points="3404.31,-1062.17 3395.83,-1064.03 3403.62,-1067.87 3404.31,-1062.17"/>
<text text-anchor="middle" x="3666" y="-1087" font-family="Arial" font-size="10.00" fill="#94cf07">67.59%</text>
<text text-anchor="middle" x="3666" y="-1076" font-family="Arial" font-size="10.00" fill="#94cf07">13447×</text>
</g>
<!-- 15 -->
<g id="node15" class="node"><title>15</title>
<polygon fill="#0d3f81" stroke="#0d3f81" points="1268.25,-144 893.75,-144 893.75,-92 1268.25,-92 1268.25,-144"/>
<text text-anchor="middle" x="1081" y="-132" font-family="Arial" font-size="10.00" fill="#ffffff">DiscreteLine2D::DiscreteLine2D(DiscretePoint2D const&amp;, DiscretePoint2D const&amp;)</text>
<text text-anchor="middle" x="1081" y="-121" font-family="Arial" font-size="10.00" fill="#ffffff">10.80%</text>
<text text-anchor="middle" x="1081" y="-110" font-family="Arial" font-size="10.00" fill="#ffffff">(8.16%)</text>
<text text-anchor="middle" x="1081" y="-99" font-family="Arial" font-size="10.00" fill="#ffffff">4019178×</text>
</g>
<!-- 11&#45;&gt;15 -->
<g id="edge14" class="edge"><title>11&#45;&gt;15</title>
<path fill="none" stroke="#0d3f81" stroke-width="0.5" d="M1362.62,-183.99C1309.8,-171.799 1246.33,-157.153 1193.03,-144.852"/>
<polygon fill="#0d3f81" stroke="#0d3f81" stroke-width="0.5" points="1193.22,-143.639 1189.53,-144.045 1192.66,-146.026 1193.22,-143.639"/>
<text text-anchor="middle" x="1344.5" y="-167" font-family="Arial" font-size="10.00" fill="#0d3f81">10.80%</text>
<text text-anchor="middle" x="1344.5" y="-156" font-family="Arial" font-size="10.00" fill="#0d3f81">4019178×</text>
</g>
<!-- 16 -->
<g id="node16" class="node"><title>16</title>
<polygon fill="#0d377f" stroke="#0d377f" points="1427.5,-144 1278.5,-144 1278.5,-92 1427.5,-92 1427.5,-144"/>
<text text-anchor="middle" x="1353" y="-132" font-family="Arial" font-size="10.00" fill="#ffffff">GridMap::resize_bound(int, int)</text>
<text text-anchor="middle" x="1353" y="-121" font-family="Arial" font-size="10.00" fill="#ffffff">9.26%</text>
<text text-anchor="middle" x="1353" y="-110" font-family="Arial" font-size="10.00" fill="#ffffff">(9.26%)</text>
<text text-anchor="middle" x="1353" y="-99" font-family="Arial" font-size="10.00" fill="#ffffff">294064707×</text>
</g>
<!-- 11&#45;&gt;16 -->
<g id="edge15" class="edge"><title>11&#45;&gt;16</title>
<path fill="none" stroke="#0d377f" stroke-width="0.5" d="M1438.13,-183.93C1422.91,-172.325 1404.79,-158.503 1389.19,-146.601"/>
<polygon fill="#0d377f" stroke="#0d377f" stroke-width="0.5" points="1389.63,-145.396 1386.1,-144.248 1388.14,-147.344 1389.63,-145.396"/>
<text text-anchor="middle" x="1454" y="-167" font-family="Arial" font-size="10.00" fill="#0d377f">9.26%</text>
<text text-anchor="middle" x="1454" y="-156" font-family="Arial" font-size="10.00" fill="#0d377f">294064707×</text>
</g>
<!-- 18 -->
<g id="node17" class="node"><title>18</title>
<polygon fill="#0d1a77" stroke="#0d1a77" points="236.25,-144 -0.25,-144 -0.25,-92 236.25,-92 236.25,-144"/>
<text text-anchor="middle" x="118" y="-132" font-family="Arial" font-size="10.00" fill="#ffffff">AvgTinyCell::set_value(Occupancy const&amp;, double)</text>
<text text-anchor="middle" x="118" y="-121" font-family="Arial" font-size="10.00" fill="#ffffff">3.16%</text>
<text text-anchor="middle" x="118" y="-110" font-family="Arial" font-size="10.00" fill="#ffffff">(3.16%)</text>
<text text-anchor="middle" x="118" y="-99" font-family="Arial" font-size="10.00" fill="#ffffff">151046898×</text>
</g>
<!-- 11&#45;&gt;18 -->
<g id="edge16" class="edge"><title>11&#45;&gt;18</title>
<path fill="none" stroke="#0d1a77" stroke-width="0.5" d="M1274.75,-207.546C1031.31,-203.695 604.002,-190.225 241,-144 240.716,-143.964 240.432,-143.927 240.148,-143.891"/>
<polygon fill="#0d1a77" stroke="#0d1a77" stroke-width="0.5" points="240.065,-142.644 236.435,-143.398 239.743,-145.073 240.065,-142.644"/>
<text text-anchor="middle" x="571" y="-167" font-family="Arial" font-size="10.00" fill="#0d1a77">3.08%</text>
<text text-anchor="middle" x="571" y="-156" font-family="Arial" font-size="10.00" fill="#0d1a77">147027443×</text>
</g>
<!-- 22 -->
<g id="node18" class="node"><title>22</title>
<polygon fill="#0d1675" stroke="#0d1675" points="1839,-144 1437,-144 1437,-92 1839,-92 1839,-144"/>
<text text-anchor="middle" x="1638" y="-132" font-family="Arial" font-size="10.00" fill="#ffffff">ConstOccupancyEstimator::estimate_occupancy(Beam const&amp;, Rectangle const&amp;, bool)</text>
<text text-anchor="middle" x="1638" y="-121" font-family="Arial" font-size="10.00" fill="#ffffff">2.13%</text>
<text text-anchor="middle" x="1638" y="-110" font-family="Arial" font-size="10.00" fill="#ffffff">(2.13%)</text>
<text text-anchor="middle" x="1638" y="-99" font-family="Arial" font-size="10.00" fill="#ffffff">151051569×</text>
</g>
<!-- 11&#45;&gt;22 -->
<g id="edge17" class="edge"><title>11&#45;&gt;22</title>
<path fill="none" stroke="#0d1675" stroke-width="0.5" d="M1517.52,-183.93C1539.5,-172.082 1565.78,-157.924 1588.17,-145.856"/>
<polygon fill="#0d1675" stroke="#0d1675" stroke-width="0.5" points="1588.94,-146.83 1591.44,-144.092 1587.78,-144.674 1588.94,-146.83"/>
<text text-anchor="middle" x="1602" y="-167" font-family="Arial" font-size="10.00" fill="#0d1675">2.13%</text>
<text text-anchor="middle" x="1602" y="-156" font-family="Arial" font-size="10.00" fill="#0d1675">151051569×</text>
</g>
<!-- 24 -->
<g id="node19" class="node"><title>24</title>
<polygon fill="#0d1475" stroke="#0d1475" points="2191.25,-144 1848.75,-144 1848.75,-92 2191.25,-92 2191.25,-144"/>
<text text-anchor="middle" x="2020" y="-132" font-family="Arial" font-size="10.00" fill="#ffffff">GridMap::update_cell(DiscretePoint2D const&amp;, Occupancy const&amp;, double)</text>
<text text-anchor="middle" x="2020" y="-121" font-family="Arial" font-size="10.00" fill="#ffffff">1.73%</text>
<text text-anchor="middle" x="2020" y="-110" font-family="Arial" font-size="10.00" fill="#ffffff">(1.25%)</text>
<text text-anchor="middle" x="2020" y="-99" font-family="Arial" font-size="10.00" fill="#ffffff">4019483×</text>
</g>
<!-- 11&#45;&gt;24 -->
<g id="edge18" class="edge"><title>11&#45;&gt;24</title>
<path fill="none" stroke="#0d1475" stroke-width="0.5" d="M1623.56,-183.99C1698.37,-171.726 1788.34,-156.977 1863.65,-144.631"/>
<polygon fill="#0d1475" stroke="#0d1475" stroke-width="0.5" points="1863.97,-145.82 1867.22,-144.045 1863.57,-143.403 1863.97,-145.82"/>
<text text-anchor="middle" x="1832.5" y="-167" font-family="Arial" font-size="10.00" fill="#0d1475">1.73%</text>
<text text-anchor="middle" x="1832.5" y="-156" font-family="Arial" font-size="10.00" fill="#0d1475">4019483×</text>
</g>
<!-- 26 -->
<g id="node20" class="node"><title>26</title>
<polygon fill="#0d1375" stroke="#0d1375" points="884,-144 246,-144 246,-92 884,-92 884,-144"/>
<text text-anchor="middle" x="565" y="-132" font-family="Arial" font-size="10.00" fill="#ffffff">std::vector&lt;DiscretePoint2D, std::allocator&lt;DiscretePoint2D&gt; &gt;::vector(std::vector&lt;DiscretePoint2D, std::allocator&lt;DiscretePoint2D&gt; &gt; const&amp;)</text>
<text text-anchor="middle" x="565" y="-121" font-family="Arial" font-size="10.00" fill="#ffffff">1.54%</text>
<text text-anchor="middle" x="565" y="-110" font-family="Arial" font-size="10.00" fill="#ffffff">(1.54%)</text>
<text text-anchor="middle" x="565" y="-99" font-family="Arial" font-size="10.00" fill="#ffffff">4019165×</text>
</g>
<!-- 11&#45;&gt;26 -->
<g id="edge19" class="edge"><title>11&#45;&gt;26</title>
<path fill="none" stroke="#0d1375" stroke-width="0.5" d="M1274.69,-189.499C1141.74,-176.292 964.766,-158.712 820.804,-144.411"/>
<polygon fill="#0d1375" stroke="#0d1375" stroke-width="0.5" points="820.587,-143.158 816.983,-144.031 820.344,-145.596 820.587,-143.158"/>
<text text-anchor="middle" x="1147.5" y="-167" font-family="Arial" font-size="10.00" fill="#0d1375">1.54%</text>
<text text-anchor="middle" x="1147.5" y="-156" font-family="Arial" font-size="10.00" fill="#0d1375">4019165×</text>
</g>
<!-- 29 -->
<g id="node21" class="node"><title>29</title>
<polygon fill="#0d1174" stroke="#0d1174" points="2515.25,-144 2200.75,-144 2200.75,-92 2515.25,-92 2515.25,-144"/>
<text text-anchor="middle" x="2358" y="-132" font-family="Arial" font-size="10.00" fill="#ffffff">std::_Sp_counted_base&lt;(__gnu_cxx::_Lock_policy)2&gt;::_M_release()</text>
<text text-anchor="middle" x="2358" y="-121" font-family="Arial" font-size="10.00" fill="#ffffff">0.96%</text>
<text text-anchor="middle" x="2358" y="-110" font-family="Arial" font-size="10.00" fill="#ffffff">(0.88%)</text>
<text text-anchor="middle" x="2358" y="-99" font-family="Arial" font-size="10.00" fill="#ffffff">10951059×</text>
</g>
<!-- 11&#45;&gt;29 -->
<g id="edge20" class="edge"><title>11&#45;&gt;29</title>
<path fill="none" stroke="#0d0e73" stroke-width="0.5" d="M1667.25,-194.812C1813.1,-183.435 2016.81,-165.792 2195,-144 2195.69,-143.915 2196.39,-143.83 2197.08,-143.744"/>
<polygon fill="#0d0e73" stroke="#0d0e73" stroke-width="0.5" points="2197.25,-144.957 2200.57,-143.309 2196.95,-142.526 2197.25,-144.957"/>
<text text-anchor="middle" x="2138.5" y="-167" font-family="Arial" font-size="10.00" fill="#0d0e73">0.36%</text>
<text text-anchor="middle" x="2138.5" y="-156" font-family="Arial" font-size="10.00" fill="#0d0e73">4019497×</text>
</g>
<!-- 20 -->
<g id="node26" class="node"><title>20</title>
<polygon fill="#0d1876" stroke="#0d1876" points="1377.25,-52 784.75,-52 784.75,-0 1377.25,-0 1377.25,-52"/>
<text text-anchor="middle" x="1081" y="-40" font-family="Arial" font-size="10.00" fill="#ffffff">void std::vector&lt;DiscretePoint2D, std::allocator&lt;DiscretePoint2D&gt; &gt;::_M_emplace_back_aux&lt;DiscretePoint2D&gt;(DiscretePoint2D&amp;&amp;)</text>
<text text-anchor="middle" x="1081" y="-29" font-family="Arial" font-size="10.00" fill="#ffffff">2.57%</text>
<text text-anchor="middle" x="1081" y="-18" font-family="Arial" font-size="10.00" fill="#ffffff">(2.57%)</text>
<text text-anchor="middle" x="1081" y="-7" font-family="Arial" font-size="10.00" fill="#ffffff">25199339×</text>
</g>
<!-- 15&#45;&gt;20 -->
<g id="edge25" class="edge"><title>15&#45;&gt;20</title>
<path fill="none" stroke="#0d1876" stroke-width="0.5" d="M1081,-91.93C1081,-80.7116 1081,-67.4223 1081,-55.7978"/>
<polygon fill="#0d1876" stroke="#0d1876" stroke-width="0.5" points="1082.23,-55.7477 1081,-52.2477 1079.78,-55.7478 1082.23,-55.7477"/>
<text text-anchor="middle" x="1105.5" y="-75" font-family="Arial" font-size="10.00" fill="#0d1876">2.57%</text>
<text text-anchor="middle" x="1105.5" y="-64" font-family="Arial" font-size="10.00" fill="#0d1876">25199339×</text>
</g>
<!-- 14&#45;&gt;19 -->
<g id="edge24" class="edge"><title>14&#45;&gt;19</title>
<path fill="none" stroke="#0d1776" stroke-width="0.5" d="M3527.03,-183.967C3623.83,-172.318 3743.49,-159.6 3851,-153 3921.76,-148.656 4419.23,-156.592 4489,-144 4489.71,-143.871 4490.43,-143.736 4491.15,-143.594"/>
<polygon fill="#0d1776" stroke="#0d1776" stroke-width="0.5" points="4491.58,-144.755 4494.76,-142.838 4491.08,-142.357 4491.58,-144.755"/>
<text text-anchor="middle" x="3875.5" y="-167" font-family="Arial" font-size="10.00" fill="#0d1776">2.42%</text>
<text text-anchor="middle" x="3875.5" y="-156" font-family="Arial" font-size="10.00" fill="#0d1776">49493648×</text>
</g>
<!-- 23 -->
<g id="node27" class="node"><title>23</title>
<polygon fill="#0d1475" stroke="#0d1475" points="4485.25,-144 2524.75,-144 2524.75,-92 4485.25,-92 4485.25,-144"/>
<text text-anchor="middle" x="3505" y="-132" font-family="Arial" font-size="10.00" fill="#ffffff">double std::normal_distribution&lt;double&gt;::operator()&lt;std::mersenne_twister_engine&lt;unsigned long, 32ul, 624ul, 397ul, 31ul, 2567483615ul, 11ul, 4294967295ul, 7ul, 2636928640ul, 15ul, 4022730752ul, 18ul, 1812433253ul&gt; &gt;(std::mersenne_twister_engine&lt;unsigned long, 32ul, 624ul, 397ul, 31ul, 2567483615ul, 11ul, 4294967295ul, 7ul, 2636928640ul, 15ul, 4022730752ul, 18ul, 1812433253ul&gt;&amp;, std::normal_distribution&lt;double&gt;::param_type const&amp;)</text>
<text text-anchor="middle" x="3505" y="-121" font-family="Arial" font-size="10.00" fill="#ffffff">1.76%</text>
<text text-anchor="middle" x="3505" y="-110" font-family="Arial" font-size="10.00" fill="#ffffff">(0.07%)</text>
<text text-anchor="middle" x="3505" y="-99" font-family="Arial" font-size="10.00" fill="#ffffff">281203×</text>
</g>
<!-- 17&#45;&gt;23 -->
<g id="edge26" class="edge"><title>17&#45;&gt;23</title>
<path fill="none" stroke="#0d1475" stroke-width="0.5" d="M3052.12,-184.717C3053.42,-184.474 3054.72,-184.235 3056,-184 3137.61,-169.086 3228.07,-155.442 3306.29,-144.546"/>
<polygon fill="#0d1475" stroke="#0d1475" stroke-width="0.5" points="3306.7,-145.725 3310,-144.029 3306.37,-143.298 3306.7,-145.725"/>
<text text-anchor="middle" x="3260" y="-167" font-family="Arial" font-size="10.00" fill="#0d1475">1.76%</text>
<text text-anchor="middle" x="3260" y="-156" font-family="Arial" font-size="10.00" fill="#0d1475">281203×</text>
</g>
<!-- 13 -->
<g id="node24" class="node"><title>13</title>
<polygon fill="#0c9a7f" stroke="#0c9a7f" points="4370,-1058.5 3580,-1058.5 3580,-1017.5 4370,-1017.5 4370,-1058.5"/>
<text text-anchor="middle" x="3975" y="-1046.5" font-family="Arial" font-size="10.00" fill="#ffffff">ros::SubscriptionCallbackHelperT&lt;ros::MessageEvent&lt;sensor_msgs::LaserScan_&lt;std::allocator&lt;void&gt; &gt; const&gt; const&amp;, void&gt;::call(ros::SubscriptionCallbackHelperCallParams&amp;)</text>
<text text-anchor="middle" x="3975" y="-1035.5" font-family="Arial" font-size="10.00" fill="#ffffff">29.63%</text>
<text text-anchor="middle" x="3975" y="-1024.5" font-family="Arial" font-size="10.00" fill="#ffffff">(0.00%)</text>
</g>
<!-- 13&#45;&gt;2 -->
<g id="edge23" class="edge"><title>13&#45;&gt;2</title>
<path fill="none" stroke="#0c9a80" stroke-width="1.18" d="M3946.79,-1017.47C3929.17,-1005.27 3906.16,-989.345 3886.48,-975.72"/>
<polygon fill="#0c9a80" stroke="#0c9a80" stroke-width="1.18" points="3887.07,-973.829 3881.56,-972.31 3884.92,-976.937 3887.07,-973.829"/>
<text text-anchor="middle" x="3943" y="-995" font-family="Arial" font-size="10.00" fill="#0c9a80">29.56%</text>
<text text-anchor="middle" x="3943" y="-984" font-family="Arial" font-size="10.00" fill="#0c9a80">4446×</text>
</g>
<!-- 25 -->
<g id="node30" class="node"><title>25</title>
<polygon fill="#0d1475" stroke="#0d1475" points="4352.5,-52 2657.5,-52 2657.5,-0 4352.5,-0 4352.5,-52"/>
<text text-anchor="middle" x="3505" y="-40" font-family="Arial" font-size="10.00" fill="#ffffff">double std::generate_canonical&lt;double, 53ul, std::mersenne_twister_engine&lt;unsigned long, 32ul, 624ul, 397ul, 31ul, 2567483615ul, 11ul, 4294967295ul, 7ul, 2636928640ul, 15ul, 4022730752ul, 18ul, 1812433253ul&gt; &gt;(std::mersenne_twister_engine&lt;unsigned long, 32ul, 624ul, 397ul, 31ul, 2567483615ul, 11ul, 4294967295ul, 7ul, 2636928640ul, 15ul, 4022730752ul, 18ul, 1812433253ul&gt;&amp;)</text>
<text text-anchor="middle" x="3505" y="-29" font-family="Arial" font-size="10.00" fill="#ffffff">1.69%</text>
<text text-anchor="middle" x="3505" y="-18" font-family="Arial" font-size="10.00" fill="#ffffff">(1.69%)</text>
<text text-anchor="middle" x="3505" y="-7" font-family="Arial" font-size="10.00" fill="#ffffff">477446×</text>
</g>
<!-- 23&#45;&gt;25 -->
<g id="edge30" class="edge"><title>23&#45;&gt;25</title>
<path fill="none" stroke="#0d1475" stroke-width="0.5" d="M3505,-91.93C3505,-80.7116 3505,-67.4223 3505,-55.7978"/>
<polygon fill="#0d1475" stroke="#0d1475" stroke-width="0.5" points="3506.23,-55.7477 3505,-52.2477 3503.78,-55.7478 3506.23,-55.7477"/>
<text text-anchor="middle" x="3524" y="-75" font-family="Arial" font-size="10.00" fill="#0d1475">1.69%</text>
<text text-anchor="middle" x="3524" y="-64" font-family="Arial" font-size="10.00" fill="#0d1475">477446×</text>
</g>
<!-- 31&#45;&gt;29 -->
<g id="edge31" class="edge"><title>31&#45;&gt;29</title>
<path fill="none" stroke="#0d0f74" stroke-width="0.5" d="M4016.21,-183.922C3981.59,-172.026 3938.11,-159.102 3898,-153 3822.31,-141.485 2596.31,-150.104 2520,-144 2519.61,-143.969 2519.22,-143.937 2518.83,-143.905"/>
<polygon fill="#0d0f74" stroke="#0d0f74" stroke-width="0.5" points="2518.89,-142.681 2515.3,-143.607 2518.68,-145.122 2518.89,-142.681"/>
<text text-anchor="middle" x="4006.5" y="-167" font-family="Arial" font-size="10.00" fill="#0d0f74">0.60%</text>
<text text-anchor="middle" x="4006.5" y="-156" font-family="Arial" font-size="10.00" fill="#0d0f74">6758119×</text>
</g>
<!-- 32 -->
<g id="node31" class="node"><title>32</title>
<polygon fill="#0d0f74" stroke="#0d0f74" points="4782,-1237.5 4538,-1237.5 4538,-1196.5 4782,-1196.5 4782,-1237.5"/>
<text text-anchor="middle" x="4660" y="-1225.5" font-family="Arial" font-size="10.00" fill="#ffffff">BaseTinyCell::set_value(Occupancy const&amp;, double)</text>
<text text-anchor="middle" x="4660" y="-1214.5" font-family="Arial" font-size="10.00" fill="#ffffff">0.66%</text>
<text text-anchor="middle" x="4660" y="-1203.5" font-family="Arial" font-size="10.00" fill="#ffffff">(0.66%)</text>
</g>
<!-- 54&#45;&gt;2 -->
<g id="edge33" class="edge"><title>54&#45;&gt;2</title>
<path fill="none" stroke="#93cf07" stroke-width="2.7" d="M3372.02,-1011.99C3460.03,-999.896 3565.64,-985.385 3654.72,-973.146"/>
<polygon fill="#93cf07" stroke="#93cf07" stroke-width="2.7" points="3655.28,-975.966 3663.01,-972.006 3654.5,-970.279 3655.28,-975.966"/>
<text text-anchor="middle" x="3613" y="-995" font-family="Arial" font-size="10.00" fill="#93cf07">67.56%</text>
<text text-anchor="middle" x="3613" y="-984" font-family="Arial" font-size="10.00" fill="#93cf07">4481×</text>
</g>
</g>
</svg>
